<svg class="animated" id="freepik_stories-sentence" xmlns="http://www.w3.org/2000/svg" viewBox="0 0 500 500" version="1.1" xmlns:xlink="http://www.w3.org/1999/xlink" xmlns:svgjs="http://svgjs.com/svgjs"><style>svg#freepik_stories-sentence:not(.animated) .animable {opacity: 0;}svg#freepik_stories-sentence.animated #freepik--speech-bubble--inject-2 {animation: 1s 1 forwards cubic-bezier(.36,-0.01,.5,1.38) slideUp,1.5s Infinite  linear floating;animation-delay: 0s,1s;}svg#freepik_stories-sentence.animated #freepik--Character--inject-2 {animation: 1.5s Infinite  linear wind;animation-delay: 0s;}            @keyframes slideUp {                0% {                    opacity: 0;                    transform: translateY(30px);                }                100% {                    opacity: 1;                    transform: inherit;                }            }                    @keyframes floating {                0% {                    opacity: 1;                    transform: translateY(0px);                }                50% {                    transform: translateY(-10px);                }                100% {                    opacity: 1;                    transform: translateY(0px);                }            }                    @keyframes wind {                0% {                    transform: rotate( 0deg );                }                25% {                    transform: rotate( 1deg );                }                75% {                    transform: rotate( -1deg );                }            }        .animator-hidden { display: none; }</style><g id="freepik--Floor--inject-2" class="animable" style="transform-origin: 250.008px 357.007px;"><path id="freepik--floor--inject-2" d="M87.63,263.26C-2,315-2,399,87.64,450.75s235.06,51.77,324.73,0S502,315,412.36,263.26,177.3,211.49,87.63,263.26Z" style="fill: rgb(5, 17, 46); transform-origin: 250.008px 357.007px;" class="animable"></path></g><g id="freepik--Shadows--inject-2" class="animable" style="transform-origin: 253.834px 392.86px;"><g id="freepik--Shadow--inject-2"><path d="M152.09,432.63,58.28,378.72c-1.71-1-1.71-2.59,0-3.59l120.2-69.77a6.82,6.82,0,0,1,6.19,0l93.8,53.92c1.72,1,1.72,2.59,0,3.58l-120.2,69.78A6.82,6.82,0,0,1,152.09,432.63Z" style="opacity: 0.15; transform-origin: 168.379px 368.996px;" class="animable"></path></g><g id="freepik--shadow--inject-2"><path d="M274.36,480.36l-93.81-53.91c-1.71-1-1.71-2.59,0-3.59l120.2-69.77a6.82,6.82,0,0,1,6.19,0L400.75,407c1.71,1,1.71,2.59,0,3.58l-120.2,69.78A6.82,6.82,0,0,1,274.36,480.36Z" style="opacity: 0.15; transform-origin: 290.65px 416.725px;" class="animable"></path></g><ellipse id="freepik--shadow--inject-2" cx="396.92" cy="358.46" rx="53.75" ry="31.03" style="fill: transparent; transform-origin: 396.92px 358.46px;" class="animable"></ellipse></g><g id="freepik--Flag--inject-2" class="animable animator-hidden" style="transform-origin: 397.267px 201.905px;"><g id="freepik--flag--inject-2" class="animable" style="transform-origin: 397.267px 201.905px;"><path d="M409.58,349.08c-6.93-4-18.15-4-25.07,0-3.46,2-5.18,4.61-5.18,7.23V359c0,2.62,1.72,5.24,5.18,7.24,6.92,4,18.15,4,25.07,0,3.46-2,5.18-4.62,5.17-7.24v-2.71C414.76,353.69,413,351.08,409.58,349.08Z" style="fill: rgb(55, 71, 79); transform-origin: 397.04px 357.66px;" id="elekcwykoxpgd" class="animable"></path><ellipse cx="397.04" cy="356.31" rx="17.73" ry="10.23" style="fill: rgb(69, 90, 100); transform-origin: 397.04px 356.31px;" id="el7bq7o5xye0x" class="animable"></ellipse><path d="M408.3,346.49c-6.22-3.59-16.3-3.59-22.52,0-3.11,1.8-4.65,4.15-4.65,6.51,0,.72,0,1.05,0,1.78,0,2.35,1.54,4.7,4.65,6.5,6.22,3.59,16.3,3.59,22.52,0,3.11-1.8,4.66-4.15,4.65-6.5V353C413,350.64,411.41,348.29,408.3,346.49Z" style="fill: rgb(55, 71, 79); transform-origin: 397.041px 353.885px;" id="elh6d5pqn9xit" class="animable"></path><ellipse cx="397.04" cy="353" rx="15.92" ry="9.19" style="fill: rgb(69, 90, 100); transform-origin: 397.04px 353px;" id="el2663ihdzleb" class="animable"></ellipse><path d="M398.93,62.62a2,2,0,0,0-2-2h0a2,2,0,0,0-2,2V352.67h0a1,1,0,0,0,.59.82,3.12,3.12,0,0,0,2.85,0,1,1,0,0,0,.59-.82h0Z" style="fill: rgb(55, 71, 79); transform-origin: 396.945px 207.227px;" id="elsx9n7175mc9" class="animable"></path><g id="elg1dppn3via7"><path d="M396.92,60.6h0a2,2,0,0,0-2,2V65a5.4,5.4,0,0,0,4,0V62.62A2,2,0,0,0,396.92,60.6Z" style="opacity: 0.2; transform-origin: 396.92px 62.992px;" class="animable"></path></g><path d="M402.53,58.57A5.61,5.61,0,1,1,396.92,53,5.61,5.61,0,0,1,402.53,58.57Z" style="fill: rgb(69, 90, 100); transform-origin: 396.92px 58.61px;" id="elmh984z679p8" class="animable"></path><path d="M373.61,286.27C372,304.83,399,317.31,420,312.6l-6.05-89.45-34,4.58Z" style="fill: rgb(235, 235, 235); transform-origin: 396.771px 268.374px;" id="elssfaeb6mexr" class="animable"></path><path d="M374.71,283a26,26,0,0,0-1.1,4.62l10.95-99.39c18.61,5.78,33.55,20.83,36.28,42.64C423.79,254.31,382.92,257.74,374.71,283Z" style="fill: rgb(224, 224, 224); transform-origin: 397.301px 237.925px;" id="elpusdxslrnq" class="animable"></path><g id="elahlarwzt625"><path d="M399.42,53.57a5.45,5.45,0,0,0-5,0,3.51,3.51,0,0,0,5,0Z" style="opacity: 0.2; transform-origin: 396.92px 53.7895px;" class="animable"></path></g><path d="M401.49,48.29c0,2.53-2.05,5.54-4.57,5.54s-4.58-3-4.58-5.54,4.58-13.72,4.58-13.72S401.49,45.76,401.49,48.29Z" style="fill: rgb(69, 90, 100); transform-origin: 396.915px 44.2px;" id="eljita7ro7ni" class="animable"></path><path d="M398.94,63.8,376.26,193.35s16.59,6.06,26.42,12.59c16.16,10.75,18.17,25.24,18.17,25.24Z" style="fill: rgb(235, 235, 235); transform-origin: 398.555px 147.49px;" id="el420q7pna17a" class="animable"></path></g></g><g id="freepik--speech-bubble--inject-2" class="animable" style="transform-origin: 92.3125px 77.4182px;"><g id="freepik--speech-bubble--inject-2" class="animable" style="transform-origin: 92.3125px 77.4182px;"><path d="M132.32,62.21c-5.67-8.25-20.83-15.1-39.58-15.27-17-.16-37.8,4.85-43,21.23-4.42,14,9.19,27,23.33,29.71a96.42,96.42,0,0,0,17.06,1.8c2.62,4.9,8.77,7.91,13.4,8.22a13.58,13.58,0,0,1-3.07-8.61,87.71,87.71,0,0,0,13.1-2.21C138.12,91,138.66,71.45,132.32,62.21Z" style="fill: rgb(232, 51, 99); transform-origin: 92.3125px 77.4182px;" id="el9pj1vqo1ski" class="animable"></path><g id="el26qvdfuaahm"><path d="M132.32,62.21c-5.67-8.25-20.83-15.1-39.58-15.27-17-.16-37.8,4.85-43,21.23-4.42,14,9.19,27,23.33,29.71a96.42,96.42,0,0,0,17.06,1.8c2.62,4.9,8.77,7.91,13.4,8.22a13.58,13.58,0,0,1-3.07-8.61,87.71,87.71,0,0,0,13.1-2.21C138.12,91,138.66,71.45,132.32,62.21Z" style="fill: rgb(255, 255, 255); opacity: 0.4; transform-origin: 92.3125px 77.4182px;" class="animable"></path></g><path d="M68.48,68.07a5.09,5.09,0,1,0,5.09,5.09A5.09,5.09,0,0,0,68.48,68.07Zm23.84,0a5.09,5.09,0,1,0,5.09,5.09A5.09,5.09,0,0,0,92.32,68.07Zm23.84,0a5.09,5.09,0,1,0,5.09,5.09A5.09,5.09,0,0,0,116.16,68.07Z" style="fill: rgb(255, 255, 255); transform-origin: 92.32px 73.16px;" id="elhz0p0aiguak" class="animable"></path></g></g><g id="freepik--Character--inject-2" class="animable animator-active" style="transform-origin: 192.379px 235.358px;"><g id="freepik--character--inject-2" class="animable" style="transform-origin: 192.379px 235.358px;"><path d="M120.62,386.54a6.87,6.87,0,0,0,.15,1.42,3.3,3.3,0,0,0,1.29,2l0,0c1,.64,2.41.58,4-.3a12,12,0,0,0,5.44-9.42,3.84,3.84,0,0,0-1.54-3.44l0,0-.26-.15h0a3.34,3.34,0,0,0-2.31-.09,6.25,6.25,0,0,0-1.33.58A12,12,0,0,0,120.62,386.54Z" style="fill: rgb(69, 90, 100); transform-origin: 126.068px 383.392px;" id="eli6pzew7lyz" class="animable"></path><path d="M122.1,374.86a5,5,0,0,1,2.42-.74,2.91,2.91,0,0,1,1.53.43l.14.08,3.5,2a3.34,3.34,0,0,0-2.31-.09,6.25,6.25,0,0,0-1.33.58,12,12,0,0,0-5.43,9.4,6.87,6.87,0,0,0,.15,1.42,3.3,3.3,0,0,0,1.29,2l-3.6-2.08-.06,0-.31-.19a.24.24,0,0,1-.09-.06,4,4,0,0,1-1.33-3.33A12,12,0,0,1,122.1,374.86Z" style="fill: rgb(38, 50, 56); transform-origin: 123.173px 382.03px;" id="elodjizsfawj" class="animable"></path><path d="M179.4,354.93a6.8,6.8,0,0,0,.15,1.42,3.23,3.23,0,0,0,1.29,2l0,0c1,.65,2.4.59,4-.3a12,12,0,0,0,5.43-9.41,3.85,3.85,0,0,0-1.53-3.45h0l-.26-.16h0a3.4,3.4,0,0,0-2.31-.09,6,6,0,0,0-1.33.58A12,12,0,0,0,179.4,354.93Z" style="fill: rgb(69, 90, 100); transform-origin: 184.844px 351.783px;" id="el1b2qfw1iae5" class="animable"></path><path d="M180.88,343.25a5,5,0,0,1,2.42-.73,2.82,2.82,0,0,1,1.53.43l.14.07,3.5,2a3.4,3.4,0,0,0-2.31-.09,6,6,0,0,0-1.33.58,12,12,0,0,0-5.43,9.4,6.8,6.8,0,0,0,.15,1.42,3.23,3.23,0,0,0,1.29,2l-3.6-2.08-.06,0-.31-.18-.09-.06a4,4,0,0,1-1.33-3.34A12,12,0,0,1,180.88,343.25Z" style="fill: rgb(38, 50, 56); transform-origin: 181.952px 350.425px;" id="elp5npg0dy65n" class="animable"></path><path d="M168.91,398.88a6.87,6.87,0,0,1-.15,1.42,3.26,3.26,0,0,1-1.29,2l0,0c-1,.64-2.4.58-4-.3a12,12,0,0,1-5.43-9.42,3.84,3.84,0,0,1,1.53-3.44l0,0,.26-.15h0a3.34,3.34,0,0,1,2.31-.09,6,6,0,0,1,1.33.58A12,12,0,0,1,168.91,398.88Z" style="fill: rgb(69, 90, 100); transform-origin: 163.467px 395.732px;" id="eldq1jxdxbhw" class="animable"></path><path d="M167.43,387.2a5,5,0,0,0-2.42-.73,2.9,2.9,0,0,0-1.53.42l-.14.08-3.5,2a3.34,3.34,0,0,1,2.31-.09,6,6,0,0,1,1.33.58,12,12,0,0,1,5.43,9.4,6.87,6.87,0,0,1-.15,1.42,3.26,3.26,0,0,1-1.29,2l3.6-2.08.06,0,.31-.18a.28.28,0,0,0,.09-.07,4,4,0,0,0,1.33-3.33A12,12,0,0,0,167.43,387.2Z" style="fill: rgb(38, 50, 56); transform-origin: 166.357px 394.375px;" id="el51ullpui33e" class="animable"></path><path d="M207.07,380.19a6.23,6.23,0,0,1-.16,1.42,3.26,3.26,0,0,1-1.28,2l0,0c-1,.65-2.4.58-4-.3a12,12,0,0,1-5.43-9.42,3.86,3.86,0,0,1,1.53-3.44v0l.26-.15h0a3.34,3.34,0,0,1,2.31-.09,6,6,0,0,1,1.33.58A12,12,0,0,1,207.07,380.19Z" style="fill: rgb(69, 90, 100); transform-origin: 201.627px 377.044px;" id="el7t60a56p2a5" class="animable"></path><path d="M205.58,368.51a4.93,4.93,0,0,0-2.42-.73,3,3,0,0,0-1.53.42l-.13.08-3.51,2a3.34,3.34,0,0,1,2.31-.09,6,6,0,0,1,1.33.58,12,12,0,0,1,5.44,9.4,6.23,6.23,0,0,1-.16,1.42,3.26,3.26,0,0,1-1.28,2l3.6-2.08.06,0,.3-.18.09-.06a4,4,0,0,0,1.34-3.34A12,12,0,0,0,205.58,368.51Z" style="fill: rgb(38, 50, 56); transform-origin: 204.512px 375.685px;" id="el2nomgvzj74x" class="animable"></path><path d="M133.31,357.27a6.87,6.87,0,0,1-.15,1.42,3.29,3.29,0,0,1-1.28,2l0,0c-1,.64-2.4.58-4-.31a12,12,0,0,1-5.43-9.41,3.83,3.83,0,0,1,1.53-3.44l0,0,.26-.15h0a3.34,3.34,0,0,1,2.31-.09,6,6,0,0,1,1.33.58A12,12,0,0,1,133.31,357.27Z" style="fill: rgb(69, 90, 100); transform-origin: 127.871px 354.122px;" id="elgcuueu6ex49" class="animable"></path><path d="M131.83,345.59a5,5,0,0,0-2.42-.74,2.93,2.93,0,0,0-1.53.43l-.14.08-3.5,2a3.34,3.34,0,0,1,2.31-.09,6,6,0,0,1,1.33.58,12,12,0,0,1,5.43,9.4,6.87,6.87,0,0,1-.15,1.42,3.29,3.29,0,0,1-1.28,2l3.59-2.08.06,0,.31-.19a.24.24,0,0,0,.09-.06,4,4,0,0,0,1.33-3.33A12,12,0,0,0,131.83,345.59Z" style="fill: rgb(38, 50, 56); transform-origin: 130.757px 352.76px;" id="elaxb1xwg61i7" class="animable"></path><polygon points="165.75 345.78 185.15 340.22 185.15 344.36 165.75 355.55 165.75 345.78" style="fill: rgb(235, 235, 235); transform-origin: 175.45px 347.885px;" id="el1z1o3e1ulqlh" class="animable"></polygon><polygon points="165.75 345.78 163.84 344.61 183.29 339.29 185.15 340.22 165.75 345.78" style="fill: rgb(245, 245, 245); transform-origin: 174.495px 342.535px;" id="el8o791vn08s7" class="animable"></polygon><polygon points="157.36 358.15 129.85 347.84 129.85 343.65 157.36 346.11 157.36 358.15" style="fill: rgb(235, 235, 235); transform-origin: 143.605px 350.9px;" id="elehf6udrm5xk" class="animable"></polygon><polygon points="129.85 343.65 131.88 343.12 158.99 344.87 157.36 346.11 129.85 343.65" style="fill: rgb(245, 245, 245); transform-origin: 144.42px 344.615px;" id="el47hw3p3wnws" class="animable"></polygon><path d="M156.62,356.82c0,3.12,9.57,3.12,9.57,0v-27.2h-9.57Z" style="fill: rgb(250, 250, 250); transform-origin: 161.405px 344.39px;" id="elwo695tg0699" class="animable"></path><path d="M163.79,349.74l5.26,34.16h-3.6l-4.92-34.16A5.81,5.81,0,0,0,163.79,349.74Z" style="fill: rgb(245, 245, 245); transform-origin: 164.79px 366.82px;" id="el67bc71u2hmh" class="animable"></path><polygon points="160.53 349.74 160.53 359.12 165.45 389.68 165.45 383.9 160.53 349.74" style="fill: rgb(235, 235, 235); transform-origin: 162.99px 369.71px;" id="elwkoprzdtsb" class="animable"></polygon><rect x="165.45" y="383.9" width="3.6" height="5.78" style="fill: rgb(224, 224, 224); transform-origin: 167.25px 386.79px;" id="el4sq82bqhvig" class="animable"></rect><polygon points="158.9 358.85 123.43 377.44 123.43 371.71 158.9 349.77 158.9 358.85" style="fill: rgb(235, 235, 235); transform-origin: 141.165px 363.605px;" id="elxmr585y7e3c" class="animable"></polygon><path d="M158.9,349.77a4,4,0,0,1-2.28-1l-35.4,21.48,2.21,1.49Z" style="fill: rgb(245, 245, 245); transform-origin: 140.06px 360.255px;" id="eldat9t5v7xa" class="animable"></path><polygon points="123.43 377.44 123.43 371.71 121.22 370.22 121.22 375.76 123.43 377.44" style="fill: rgb(224, 224, 224); transform-origin: 122.325px 373.83px;" id="elpddgibqe3ul" class="animable"></polygon><polygon points="203.61 370.87 165.72 357.9 165.72 349.39 203.61 365.15 203.61 370.87" style="fill: rgb(235, 235, 235); transform-origin: 184.665px 360.13px;" id="elo5dznsp6sr" class="animable"></polygon><path d="M165.72,349.39c.31-.09.44-.64.47-1.47l38.54,16.76-1.12.47Z" style="fill: rgb(245, 245, 245); transform-origin: 185.225px 356.535px;" id="elwtddfq5lkz8" class="animable"></path><polygon points="204.73 364.68 204.73 370.22 203.61 370.87 203.61 365.15 204.73 364.68" style="fill: rgb(224, 224, 224); transform-origin: 204.17px 367.775px;" id="eld71m7lhp4l" class="animable"></polygon><g id="el3tlph44zqyw"><rect x="165.45" y="383.9" width="3.6" height="5.78" style="opacity: 0.1; transform-origin: 167.25px 386.79px;" class="animable"></rect></g><g id="elwhsd8liefu"><polygon points="123.43 377.44 123.43 371.71 121.22 370.22 121.22 375.76 123.43 377.44" style="opacity: 0.1; transform-origin: 122.325px 373.83px;" class="animable"></polygon></g><g id="elw8p48t5ikp"><polygon points="204.73 364.68 204.73 370.22 203.61 370.87 203.61 365.15 204.73 364.68" style="opacity: 0.1; transform-origin: 204.17px 367.775px;" class="animable"></polygon></g><path d="M169.5,276.5H153.3v61.84c0,4.65,16.2,4.65,16.2,0Z" style="fill: rgb(240, 240, 240); transform-origin: 161.4px 309.164px;" id="el6gu8l3h3un" class="animable"></path><path d="M104,268.73,166,236.31s4.36-21.24-10.34-44.38c0,0,4.37-41.24-3-55-5.37-10.46-11.81-9-11.81-9l-70.5,31.83Z" style="fill: rgb(232, 51, 99); transform-origin: 118.477px 198.295px;" id="el7elwpfakkex" class="animable"></path><g id="el1quia63j9zj"><path d="M104,268.73,166,236.31s4.36-21.24-10.34-44.38c0,0,4.37-41.24-3-55-5.37-10.46-11.81-9-11.81-9l-70.5,31.83Z" style="opacity: 0.3; transform-origin: 118.477px 198.295px;" class="animable"></path></g><path d="M140.91,127.94l-70.5,31.83,2.32,7.52,77.09-34.81C145.28,127,140.91,127.94,140.91,127.94Z" style="fill: rgb(232, 51, 99); transform-origin: 110.115px 147.584px;" id="elih89j4wcwr" class="animable"></path><g id="eldhxzhby4aq9"><path d="M140.91,127.94l-70.5,31.83,2.32,7.52,77.09-34.81C145.28,127,140.91,127.94,140.91,127.94Z" style="opacity: 0.1; transform-origin: 110.115px 147.584px;" class="animable"></path></g><g id="ele5tykvvlh1"><g style="opacity: 0.5; transform-origin: 126.901px 202.16px;" class="animable"><g id="el3o7gh66v3qb"><path d="M141.17,193.91a1.29,1.29,0,0,0,2.12.92,3.36,3.36,0,0,0,1.58-3.05c-.15-1.09-1.1-1.5-2.12-.91A3.34,3.34,0,0,0,141.17,193.91Z" style="opacity: 0.4; transform-origin: 143.02px 192.867px;" class="animable"></path></g><g id="el63m8osg7xyv"><path d="M130.42,200.12c.15,1.09,1.1,1.5,2.12.91a3.31,3.31,0,0,0,1.58-3c-.15-1.1-1.09-1.5-2.12-.92A3.36,3.36,0,0,0,130.42,200.12Z" style="opacity: 0.4; transform-origin: 132.27px 199.072px;" class="animable"></path></g><g id="elkw85oi2k1m"><path d="M119.67,206.33c.15,1.09,1.1,1.5,2.12.91a3.33,3.33,0,0,0,1.58-3.05c-.15-1.09-1.09-1.5-2.11-.91A3.36,3.36,0,0,0,119.67,206.33Z" style="opacity: 0.4; transform-origin: 121.521px 205.26px;" class="animable"></path></g><g id="elre9qcuuco5"><path d="M108.93,212.53c.14,1.1,1.09,1.51,2.11.92a3.33,3.33,0,0,0,1.58-3c-.15-1.09-1.09-1.5-2.11-.91A3.32,3.32,0,0,0,108.93,212.53Z" style="opacity: 0.4; transform-origin: 110.775px 211.495px;" class="animable"></path></g></g></g><path d="M237,262.75v3.42a12.39,12.39,0,0,1-6,10l-69.2,36.32a13.8,13.8,0,0,1-11.95-.24l-39.91-23A13.06,13.06,0,0,1,104,279v-3.42a12.36,12.36,0,0,1,6.05-10l65.49-34.21a15,15,0,0,1,12.15-.11l43.22,21.63A12.07,12.07,0,0,1,237,262.75Z" style="fill: rgb(232, 51, 99); transform-origin: 170.5px 271.881px;" id="elcaqc5jyiwx" class="animable"></path><g id="elhdrlhj12mrn"><path d="M237,262.75v3.42a12.39,12.39,0,0,1-6,10l-69.2,36.32a13.8,13.8,0,0,1-11.95-.24l-39.91-23A13.06,13.06,0,0,1,104,279v-3.42a12.36,12.36,0,0,1,6.05-10l65.49-34.21a15,15,0,0,1,12.15-.11l43.22,21.63A12.07,12.07,0,0,1,237,262.75Z" style="opacity: 0.2; transform-origin: 170.5px 271.881px;" class="animable"></path></g><path d="M161.73,295.42l69.2-36.32c3.34-1.75,3.31-4.54-.06-6.22l-43.22-21.63a15,15,0,0,0-12.15.11L110,265.57c-3.34,1.75-3.41,4.69-.14,6.57l39.91,23A13.73,13.73,0,0,0,161.73,295.42Z" style="fill: rgb(232, 51, 99); transform-origin: 170.433px 263.337px;" id="elk1u1upvswls" class="animable"></path><g id="eldar38mgcvld"><path d="M157.28,313.68a13.46,13.46,0,0,1-7.5-1.43l-39.92-23A13.1,13.1,0,0,1,104,279v-3.43a12.46,12.46,0,0,1,5.19-9.45c-2.47,1.76-2.23,4.34.71,6l39.92,23.05a12.79,12.79,0,0,0,6.1,1.47Z" style="opacity: 0.2; transform-origin: 130.64px 289.933px;" class="animable"></path></g><g id="el8uxh0b8mt6"><path d="M157.28,313.68a13.46,13.46,0,0,1-7.5-1.43l-39.92-23A13.1,13.1,0,0,1,104,279v-3.43a12.46,12.46,0,0,1,5.19-9.45c-2.47,1.76-2.23,4.34.71,6l39.92,23.05a12.79,12.79,0,0,0,6.1,1.47Z" style="opacity: 0.2; transform-origin: 130.64px 289.933px;" class="animable"></path></g><path d="M140.91,127.94s10.2-6.91,21-.7,7.2,27.1,6,40.57-1.53,36.92,7.9,45.46,40.29-2.81,53.76-2.81L217.7,254.25c-13.09-7.13-34-14.45-51.67-17.94,0,0,.58-27.31-11.94-42.91,0,0,4.61-10.92,1.59-32.8C152.89,140.35,149.11,132.68,140.91,127.94Z" style="fill: rgb(232, 51, 99); transform-origin: 185.24px 189.45px;" id="elp54tf9z40x" class="animable"></path><g id="elrroaid9qej"><path d="M140.91,127.94s10.2-6.91,21-.7,7.2,27.1,6,40.57-1.53,36.92,7.9,45.46,40.29-2.81,53.76-2.81L217.7,254.25c-13.09-7.13-34-14.45-51.67-17.94,0,0,.58-27.31-11.94-42.91,0,0,4.61-10.92,1.59-32.8C152.89,140.35,149.11,132.68,140.91,127.94Z" style="opacity: 0.2; transform-origin: 185.24px 189.45px;" class="animable"></path></g><path d="M217.7,254.25c-.61-3.91-3.09-26.45,1.11-36.26,3.66-8.53,13.26-9,16.27-5.38,2.86,3.47.32,8.09-4.48,14.35-4,5.29-5.51,10.23-5.51,23Z" style="fill: rgb(232, 51, 99); transform-origin: 226.35px 232.361px;" id="el8faw7ekzaa9" class="animable"></path><g id="ellc4eguw5wxq"><path d="M217.7,254.25c-.61-3.91-3.09-26.45,1.11-36.26,3.66-8.53,13.26-9,16.27-5.38,2.86,3.47.32,8.09-4.48,14.35-4,5.29-5.51,10.23-5.51,23Z" style="opacity: 0.1; transform-origin: 226.35px 232.361px;" class="animable"></path></g><g id="freepik--character--inject-2" class="animable" style="transform-origin: 208.349px 235.358px;"><g id="freepik--Bottom--inject-2" class="animable" style="transform-origin: 195.545px 313.497px;"><polygon points="185.87 388.55 193.13 386.32 191.11 381.38 186.5 385.16 185.87 388.55" id="elz1twbimkk9o" class="animable" style="transform-origin: 189.5px 384.965px;"></polygon><path d="M179.35,375.3s-.57,4.59-.73,6,5.76,6.36,7.25,7.21l.63-3.39c1.24,1.42,1.93,3.16,3.2,5.74,1.06,2.14,2.34,6.16,5.45,9,4.63,4.28,12.09,6.77,19.82,7.53s12.27-.86,14.58-2.4,3.13-3.46,2.7-5.46S179.35,375.3,179.35,375.3Z" style="fill: rgb(38, 50, 56); transform-origin: 205.488px 391.442px;" id="elrgievctvfqf" class="animable"></path><path d="M201.05,360.84l.26-2.67c1.43.05,1.36,3.93,3.22,7.47,2.52,4.75,6.28,10.74,10,14.62,7.4,7.64,14.13,12.57,17.43,16,4.42,4.6-4.25,10.93-16.84,9.43-6.25-.74-17.2-4.59-20.1-8.5s-4.46-9.8-6.8-12.65-7.55-5.9-8.9-9.26c-.75-1.85,0-6,.7-9.55.68-3.24,1.09-8.24,2.91-7.72l0,1.69c.66,1.48,2.26,3.95,7.27,5.12C192.75,365.42,200.26,366.12,201.05,360.84Z" style="fill: rgb(69, 90, 100); transform-origin: 206.068px 381.944px;" id="el7n5ilx80ni5" class="animable"></path><path d="M194.3,365.22c2.43-.05,5.07-.69,6.22-2.8,0,0,0,0,0-.07a6.12,6.12,0,0,0,1.31,5.25c2.09,2.79,15.2,22.33,15.2,22.33s-12.32-16.22-14.69-19.27c-3.5-4.52-4.66-5.1-8.1-5.43Z" style="fill: rgb(38, 50, 56); transform-origin: 205.635px 376.14px;" id="elygij3fzbvs" class="animable"></path><g id="elnsejww0uj0k"><path d="M197.14,370.36a.77.77,0,1,1-.63-.89A.76.76,0,0,1,197.14,370.36Z" style="opacity: 0.15; transform-origin: 196.382px 370.229px;" class="animable"></path></g><g id="elou0mlfwn07m"><path d="M200.62,374.72a.78.78,0,1,1-1.53-.27.78.78,0,0,1,.9-.63A.79.79,0,0,1,200.62,374.72Z" style="opacity: 0.15; transform-origin: 199.846px 374.621px;" class="animable"></path></g><g id="ellwn6oo6vs2f"><path d="M204.09,379.08a.78.78,0,1,1-.63-.9A.78.78,0,0,1,204.09,379.08Z" style="opacity: 0.15; transform-origin: 203.321px 378.948px;" class="animable"></path></g><g id="el6tpkl08onxq"><path d="M207.56,383.43a.78.78,0,1,1-.63-.89A.78.78,0,0,1,207.56,383.43Z" style="opacity: 0.15; transform-origin: 206.79px 383.307px;" class="animable"></path></g><g id="el795x2jszbbk"><path d="M211,387.79a.78.78,0,0,1-.9.63.78.78,0,1,1,.9-.63Z" style="opacity: 0.15; transform-origin: 210.232px 387.651px;" class="animable"></path></g><path d="M196.34,370.54a.29.29,0,0,1-.19-.11.31.31,0,0,1,0-.44c.16-.14,4.11-3.49,8.95-2.91h0a.31.31,0,0,1-.08.61c-4.58-.55-8.44,2.73-8.48,2.77A.31.31,0,0,1,196.34,370.54Z" style="fill: rgb(38, 50, 56); transform-origin: 200.695px 368.776px;" id="el2c7mid8xh4b" class="animable"></path><path d="M199.81,374.88a.3.3,0,0,1-.19-.1.31.31,0,0,1,0-.44c.17-.15,4.11-3.5,9-2.91h0a.3.3,0,0,1,.27.34.32.32,0,0,1-.35.28c-4.57-.56-8.43,2.73-8.47,2.76A.32.32,0,0,1,199.81,374.88Z" style="fill: rgb(38, 50, 56); transform-origin: 204.211px 373.123px;" id="elbrhf3tu5kp" class="animable"></path><path d="M203.28,379.25a.3.3,0,0,1-.19-.1.31.31,0,0,1,0-.44c.17-.15,4.11-3.5,8.95-2.91h0a.3.3,0,0,1,.27.34.32.32,0,0,1-.35.28c-4.57-.56-8.43,2.73-8.47,2.76A.32.32,0,0,1,203.28,379.25Z" style="fill: rgb(38, 50, 56); transform-origin: 207.656px 377.49px;" id="elln5noqlgyes" class="animable"></path><path d="M206.75,383.61a.31.31,0,0,1-.19-.11.31.31,0,0,1,0-.44c.17-.14,4.11-3.49,9-2.91h0a.32.32,0,0,1,.27.35.31.31,0,0,1-.35.27c-4.57-.55-8.43,2.73-8.47,2.76A.29.29,0,0,1,206.75,383.61Z" style="fill: rgb(38, 50, 56); transform-origin: 211.15px 381.849px;" id="ele9n1jes68e4" class="animable"></path><path d="M210.22,388a.3.3,0,0,1-.19-.1.31.31,0,0,1,0-.44c.17-.14,4.11-3.5,9-2.91h0a.31.31,0,0,1-.08.62c-4.56-.55-8.43,2.73-8.47,2.76A.29.29,0,0,1,210.22,388Z" style="fill: rgb(38, 50, 56); transform-origin: 214.62px 386.244px;" id="elwlngzccw5gr" class="animable"></path><polygon points="223.78 368.24 230.93 365.71 228.71 360.85 224.25 364.83 223.78 368.24" id="eljw1uvvdvqok" class="animable" style="transform-origin: 227.355px 364.545px;"></polygon><path d="M216.69,355.28s-.38,4.62-.47,6.08,6,6.1,7.56,6.88l.47-3.41c1.31,1.36,2.07,3.07,3.45,5.59,1.16,2.1,2.61,6.06,5.84,8.8,4.8,4.08,12.37,6.24,20.12,6.68s12.23-1.39,14.47-3,3-3.59,2.46-5.57S216.69,355.28,216.69,355.28Z" style="fill: rgb(38, 50, 56); transform-origin: 243.488px 370.623px;" id="el4pxm97m2ieb" class="animable"></path><path d="M237.74,339.91l.15-2.69c1.43,0,1.53,3.88,3.55,7.33,2.71,4.64,6.73,10.46,10.64,14.17,7.73,7.32,14.66,12,18.1,15.26,4.62,4.4-3.77,11.11-16.42,10.15-6.27-.48-17.37-3.85-20.44-7.63s-4.88-9.6-7.33-12.34-7.8-5.57-9.3-8.88c-.83-1.81-.29-6,.29-9.56.54-3.27.73-8.29,2.57-7.84l.1,1.68c.72,1.45,2.43,3.85,7.48,4.8C229.65,344.84,237.19,345.21,237.74,339.91Z" style="fill: rgb(69, 90, 100); transform-origin: 243.864px 360.721px;" id="el59pvtpea0j9" class="animable"></path><path d="M231.19,344.58c2.42-.17,5-.92,6.1-3.08a.43.43,0,0,0,0-.07,6.12,6.12,0,0,0,1.54,5.19c2.21,2.7,16.15,21.66,16.15,21.66s-13-15.67-15.51-18.62c-3.69-4.37-4.88-4.89-8.33-5.08Z" style="fill: rgb(38, 50, 56); transform-origin: 243.06px 354.855px;" id="elyruo22yn9nj" class="animable"></path><g id="elamhg7iowqc"><path d="M234.26,349.59a.79.79,0,0,1-.87.67.78.78,0,1,1,.87-.67Z" style="opacity: 0.15; transform-origin: 233.487px 349.486px;" class="animable"></path></g><g id="eltmf1p6tjlm"><path d="M237.91,353.79a.77.77,0,1,1-.67-.87A.78.78,0,0,1,237.91,353.79Z" style="opacity: 0.15; transform-origin: 237.147px 353.684px;" class="animable"></path></g><g id="elwkc7jge8hp"><path d="M241.57,358a.78.78,0,1,1-.67-.86A.78.78,0,0,1,241.57,358Z" style="opacity: 0.15; transform-origin: 240.795px 357.913px;" class="animable"></path></g><g id="elgm96c6srmj5"><path d="M245.22,362.2a.77.77,0,1,1-.66-.87A.76.76,0,0,1,245.22,362.2Z" style="opacity: 0.15; transform-origin: 244.458px 362.093px;" class="animable"></path></g><g id="elt48ei8ge51"><path d="M248.88,366.4a.78.78,0,1,1-.67-.87A.79.79,0,0,1,248.88,366.4Z" style="opacity: 0.15; transform-origin: 248.106px 366.303px;" class="animable"></path></g><path d="M233.46,349.8a.3.3,0,0,1-.2-.1.31.31,0,0,1,0-.44c.16-.15,4-3.67,8.82-3.29h0a.31.31,0,0,1,0,.62c-4.6-.36-8.31,3.09-8.35,3.12A.29.29,0,0,1,233.46,349.8Z" style="fill: rgb(38, 50, 56); transform-origin: 237.777px 347.873px;" id="elmpl1wm4dx4a" class="animable"></path><path d="M237.11,354a.3.3,0,0,1-.19-.1.31.31,0,0,1,0-.44c.16-.15,3.95-3.67,8.82-3.29h0a.3.3,0,0,1,.28.33.32.32,0,0,1-.34.29c-4.58-.36-8.3,3.09-8.34,3.12A.34.34,0,0,1,237.11,354Z" style="fill: rgb(38, 50, 56); transform-origin: 241.425px 352.071px;" id="elkfnjix65opr" class="animable"></path><path d="M240.77,358.2a.33.33,0,0,1-.2-.09.3.3,0,0,1,0-.44c.15-.15,3.95-3.67,8.82-3.3h0a.31.31,0,0,1,.28.34.3.3,0,0,1-.33.28c-4.59-.35-8.31,3.1-8.35,3.13A.32.32,0,0,1,240.77,358.2Z" style="fill: rgb(38, 50, 56); transform-origin: 245.073px 356.271px;" id="elmdwlcnmqvrk" class="animable"></path><path d="M244.42,362.41a.3.3,0,0,1-.19-.1.31.31,0,0,1,0-.44c.16-.15,3.95-3.67,8.82-3.29h0a.3.3,0,0,1,.28.33.33.33,0,0,1-.34.29c-4.58-.36-8.31,3.09-8.34,3.12A.34.34,0,0,1,244.42,362.41Z" style="fill: rgb(38, 50, 56); transform-origin: 248.735px 360.481px;" id="eldanrc1018js" class="animable"></path><path d="M248.08,366.61a.35.35,0,0,1-.2-.1.31.31,0,0,1,0-.44c.16-.15,3.95-3.67,8.82-3.29h0a.31.31,0,0,1-.05.62c-4.59-.35-8.31,3.09-8.35,3.13A.3.3,0,0,1,248.08,366.61Z" style="fill: rgb(38, 50, 56); transform-origin: 252.387px 364.681px;" id="el0ykb2ukfzhk" class="animable"></path><path d="M246,298.41c-1.86,21.94-3.59,47.89-3.59,47.89-17.74,7.17-25.53-2.73-25.53-2.73s-.13-1.92-1.84-20.64c-1.35-14.86-.61-16.19-.61-22.85,0-7.34-2.93-10.2-7.66-13.7S181,270.66,165.68,261c-18.22-11.54-13-24.79-15.35-36.95l46.75.4C218.31,245.75,226.76,253.47,235,262,245.17,272.45,247.61,279.07,246,298.41Z" style="fill: rgb(38, 50, 56); transform-origin: 198.392px 286.478px;" id="elgagf9urdwgj" class="animable"></path><path d="M189.7,254.86a26.31,26.31,0,0,0,5.68-17.39c-4.84,12.48-13.42,17-13.42,17-1.25,3.54-.55,5.38-1.28,9.06a45.5,45.5,0,0,0-.8,6.15c11.86,7.22,23.35,14.06,26.7,16.53,4.73,3.5,7.65,6.37,7.65,13.7,0,6.67-.73,8,.62,22.85.31,3.45.57,6.33.79,8.73,1.88-8.19,4-21.72,4.39-25.16,1.09-8.58.32-13.66-2.83-18.65S189.7,254.86,189.7,254.86Z" style="fill: rgb(38, 50, 56); transform-origin: 200.188px 284.48px;" id="el04rdg7w2dk0g" class="animable"></path><path d="M213.28,319.34c-3.34,21.77-7.6,48-7.6,48-17.73,7.17-25.33-3.17-25.33-3.17s-.47-4.84-1.32-19.28c-.88-14.89-.16-21.91.61-28.52,1.13-9.74-2.17-12.12-5.79-15.31-2.85-2.52-15.94-13.35-30.36-24.34-16.47-12.55-21.33-22-23.42-33.45-1-5.72-.2-17.28,1.29-23.86l74,4.58s1.18,21.13-11.54,30.89c11.31,13.82,15.39,18.12,21,25C215.23,292.62,217.08,294.66,213.28,319.34Z" style="fill: rgb(38, 50, 56); transform-origin: 167.362px 294.641px;" id="elz65j2vk398" class="animable"></path></g><g id="freepik--Top--inject-2" class="animable" style="transform-origin: 208.349px 209.472px;"><g id="freepik--Wig--inject-2" class="animable" style="transform-origin: 191.434px 115.318px;"><path d="M202.21,102.78a7.8,7.8,0,0,1,4.49,6.52,6.05,6.05,0,0,1-2.67,4.9,6.85,6.85,0,0,1,.89,12.37,7.68,7.68,0,0,1,4.12,3.49,8.34,8.34,0,0,1,.22,7.11c-.94,1.78-3.39,2.35-5.3,2.68a45.8,45.8,0,0,1-11.87,0q-7.17-.66-14.33-1.53a2.55,2.55,0,0,1-1-.3,2.41,2.41,0,0,1-.84-1.48,82,82,0,0,1-1-40c.35-1.56.84-3.24,2.13-4.19a7,7,0,0,1,3.08-1c7.13-1.18,18.89-2.7,22.78,5.33a6.23,6.23,0,0,1,.63,3.37C203.5,100.33,202.76,103,202.21,102.78Z" style="fill: rgb(224, 224, 224); transform-origin: 191.434px 115.318px;" id="elmejcm99m8r" class="animable"></path><g id="el3ulvpecwmlh"><path d="M202.21,102.78a7.8,7.8,0,0,1,4.49,6.52,6.05,6.05,0,0,1-2.67,4.9,6.85,6.85,0,0,1,.89,12.37,7.68,7.68,0,0,1,4.12,3.49,8.34,8.34,0,0,1,.22,7.11c-.94,1.78-3.39,2.35-5.3,2.68a45.8,45.8,0,0,1-11.87,0q-7.17-.66-14.33-1.53a2.55,2.55,0,0,1-1-.3,2.41,2.41,0,0,1-.84-1.48,82,82,0,0,1-1-40c.35-1.56.84-3.24,2.13-4.19a7,7,0,0,1,3.08-1c7.13-1.18,18.89-2.7,22.78,5.33a6.23,6.23,0,0,1,.63,3.37C203.5,100.33,202.76,103,202.21,102.78Z" style="opacity: 0.1; transform-origin: 191.434px 115.318px;" class="animable"></path></g><path d="M199.8,130a8.73,8.73,0,0,0,4.33,9.78c1.88-.33,4.21-.92,5.13-2.65a8.34,8.34,0,0,0-.22-7.11,7.68,7.68,0,0,0-4.12-3.49A6.85,6.85,0,0,0,204,114.2a6.05,6.05,0,0,0,2.67-4.9,7.8,7.8,0,0,0-4.49-6.52c.55.25,1.29-2.45,1.32-2.76a6.23,6.23,0,0,0-.63-3.37,9.72,9.72,0,0,0-3.18-3.73l-.12.35a2.66,2.66,0,0,0-2.34.87,5.16,5.16,0,0,0-1.13,2.31,7,7,0,0,0,.22,4.37,4.4,4.4,0,0,0,3.3,2.68,6.18,6.18,0,0,0,2,10.67,3.53,3.53,0,0,0-2.44,2.48A8.08,8.08,0,0,0,203,126.3,5.27,5.27,0,0,0,199.8,130Z" style="fill: rgb(240, 240, 240); transform-origin: 202.9px 116.35px;" id="elyd987xr1sob" class="animable"></path></g><g id="freepik--Arm--inject-2" class="animable" style="transform-origin: 262.988px 125.121px;"><path d="M267.9,121.58s-8.89,3.26-3.68,22.58c3.84,14.23,11.55,12.93,11.55,12.93,4.91-1.48,3.81-11.3,2.09-20.63S274.52,119.11,267.9,121.58Z" id="elq9edzfyda3s" class="animable" style="transform-origin: 270.949px 139.124px;"></path><path d="M278.72,138.91c3-2.27.26-8.81-1.38-12.34s-5.83-6.36-9.4-4.77-2.29,9.34-.43,12.73S275.51,141,278.72,138.91Z" style="fill: rgb(38, 50, 56); transform-origin: 272.869px 130.469px;" id="el7lacd8yrc7p" class="animable"></path><path d="M294.67,125.14c-3.16,1.07-3.9.47-8.37,4-2.9,2.25-14.73,10.64-14.73,10.64s-7.24-7.59-3.33-17.8c5.38-2.76,11.83-6.25,13.75-8,3.42-3.15,5-5.37,8.44-7.37a75.28,75.28,0,0,0,6.52-4.41,19.34,19.34,0,0,1,4.63-2.92,5.92,5.92,0,0,1,.95-.19c2-.36,3.12.26,4.18,2a2.93,2.93,0,0,1-.33,4.21,4.15,4.15,0,0,1,.52,5,4.12,4.12,0,0,1-.3,5.74c-.22.2-.5.41-.51.71a1.24,1.24,0,0,0,.23.62,3.22,3.22,0,0,1-.82,3.6,14.3,14.3,0,0,1-3.28,2.15,3.14,3.14,0,0,1-1.83.61c-.62-.07-.88-.5-.86-1.36-.7.22-1.28,1-1.92,1.43A14.41,14.41,0,0,1,294.67,125.14Z" style="fill: rgb(177, 102, 104); transform-origin: 287.502px 119.386px;" id="elcfj8xx4esxf" class="animable"></path><path d="M300.47,119.21c-.29-.52-.8-.69-.87-1.36a3.86,3.86,0,0,1,.62-2c.12-.26-.18-.53-.38-.61a1.25,1.25,0,0,1-.65-1.37,4.52,4.52,0,0,1,.86-1.86.45.45,0,0,0-.17-.64,2.81,2.81,0,0,1-1.45-2.28,6.26,6.26,0,0,1,.52-2.8c.05-.14-.16-.48-.31-.31a4,4,0,0,0,.28,5.81,3.88,3.88,0,0,0-.8,2.46,2.21,2.21,0,0,0,.34,1,1.65,1.65,0,0,0,.84.68,3.78,3.78,0,0,0-.54,1.81,1.94,1.94,0,0,0,.38,1.09,2.32,2.32,0,0,0,.44.39,4.42,4.42,0,0,0,.47.39s.05,0,.06.07a.14.14,0,0,1,0,.06,5.49,5.49,0,0,0-.55,1.46c0,.15-.27,1.28,0,1.31a6.69,6.69,0,0,1,.35-1.13c.19-.47.44-.92.63-1.4A.83.83,0,0,0,300.47,119.21Z" style="fill: rgb(154, 74, 77); transform-origin: 299.063px 114.222px;" id="elbgt8v71jvek" class="animable"></path><path d="M290.21,132.71h0a2.14,2.14,0,0,1-1.58-2.58l11.56-48,4.15,1-11.56,48A2.13,2.13,0,0,1,290.21,132.71Z" id="el84c4crk70qo" class="animable" style="transform-origin: 296.455px 107.449px;"></path><path d="M295,64.08c-1.74-.48-3.8.17-5.77,2.08-4,3.85-6.1,11.31-4.75,16.66.67,2.68,2.08,4.32,3.82,4.81l3.46,1c1.74.5,3.81-.15,5.79-2.07,4-3.85,6.09-11.31,4.75-16.67-.68-2.67-2.09-4.31-3.83-4.81Z" style="fill: rgb(55, 71, 79); transform-origin: 293.388px 76.3601px;" id="el42nwvhfdhjn" class="animable"></path><g id="el97dd94408m"><ellipse cx="295.14" cy="76.85" rx="12.25" ry="7.07" style="fill: rgb(38, 50, 56); transform-origin: 295.14px 76.85px; transform: rotate(-74.1deg);" class="animable"></ellipse></g><path d="M298.29,66.49c-1.53-.43-3.35.14-5.1,1.83A16.93,16.93,0,0,0,289,83.05c.6,2.37,1.85,3.82,3.38,4.25l22.26,6.35c1.54.44,3.36-.13,5.12-1.83a16.94,16.94,0,0,0,4.19-14.73c-.59-2.37-1.84-3.82-3.38-4.25Z" style="fill: rgb(232, 51, 99); transform-origin: 306.475px 80.0725px;" id="eludxej2n51y" class="animable"></path><g id="el8wf0ait4lyw"><path d="M298.29,66.49c-1.53-.43-3.35.14-5.1,1.83A16.93,16.93,0,0,0,289,83.05c.6,2.37,1.85,3.82,3.38,4.25l22.26,6.35c1.54.44,3.36-.13,5.12-1.83a16.94,16.94,0,0,0,4.19-14.73c-.59-2.37-1.84-3.82-3.38-4.25Z" style="fill: rgb(255, 255, 255); opacity: 0.3; transform-origin: 306.475px 80.0725px;" class="animable"></path></g><g id="elzolgcndokp"><path d="M322.59,87.67,288.76,78a14.14,14.14,0,0,0,.23,5c.6,2.37,1.85,3.82,3.38,4.25l22.26,6.35c1.54.44,3.36-.13,5.12-1.83A13.87,13.87,0,0,0,322.59,87.67Z" style="fill: rgb(232, 51, 99); opacity: 0.6; transform-origin: 305.614px 85.8713px;" class="animable"></path></g><path d="M317.48,70.48c-1.74-.49-3.8.16-5.77,2.08-4,3.84-6.1,11.3-4.75,16.66.67,2.68,2.08,4.32,3.82,4.81l3.46,1c1.74.5,3.81-.15,5.79-2.07,4-3.85,6.09-11.31,4.75-16.67-.68-2.68-2.09-4.32-3.83-4.81Z" style="fill: rgb(55, 71, 79); transform-origin: 315.868px 82.7576px;" id="elkn6y0bgu25n" class="animable"></path><path d="M315.16,73.54c4-3.84,8.27-2.62,9.62,2.74S324,89.1,320,93s-8.28,2.61-9.62-2.75S311.19,77.39,315.16,73.54Z" style="fill: rgb(69, 90, 100); transform-origin: 317.583px 83.2813px;" id="el1m4rg9i4989h" class="animable"></path><path d="M300.38,98c-1.2-.42-2,1-3.44,2.28a14.42,14.42,0,0,1-5,3.23c-4.89,1.93-7.32,7.75-9.39,13.67,6.27-.59,10,1.85,13.29-6.85,1-2.58,2.66-3.73,4.45-6.28S301.59,98.42,300.38,98Z" style="fill: rgb(177, 102, 104); transform-origin: 292.007px 107.552px;" id="elbiieuy5vuim" class="animable"></path><path d="M291.94,103.51c3-1.06,4.89-3.65,7.28-5.61,2-1,2.72,1.79,2.46,3.27-.38,3.2-3.25,5.28-4.82,7.87-.85,1.25-1.31,2.72-2.12,4.07a10.88,10.88,0,0,1-7.31,5.34,11.1,11.1,0,0,0,6.93-5.55c.72-1.31,1.2-2.82,2.06-4.14,1.51-2.62,4.28-4.56,4.74-7.66.19-1.13-.13-3.5-1.74-2.81a9.08,9.08,0,0,0-1.68,1.47,15.09,15.09,0,0,1-5.8,3.75Z" style="fill: rgb(154, 74, 77); transform-origin: 294.581px 108.069px;" id="ellyzu6bte179" class="animable"></path><path d="M267.94,121.8c4.68-2.38,8.68-4.52,8.68-4.52s-2,3-1.18,8.1c1.27,8.16,5.25,8,5.25,8l-9.3,7.13c-1.7-.33-4.25-2.28-6.1-8.08C264,128.26,263,124.52,267.94,121.8Z" style="fill: rgb(224, 224, 224); transform-origin: 272.463px 128.895px;" id="ely1ih0m9xhfh" class="animable"></path><path d="M200.79,179.26c3.39-5.15,9.49-7.72,23.71-13,10.42-3.84,23.36-7.79,28.26-10.28s26-17.11,26-17.11c-2.19.48-6.06-3.14-7.67-8.84-1.55-5.51-.19-9.24,1-10.38,0,0-24.11,10.86-28.48,13.08s-25.65,8.15-33.14,8.32a63.9,63.9,0,0,1-7.32,0Z" style="fill: rgb(69, 90, 100); transform-origin: 239.775px 149.455px;" id="eljizrd3zcrm" class="animable"></path><path d="M206.23,165.66c-.7-2.72-1.33-13.91-2.53-19.39l-.36,5.24-2.55,27.75c3.91-5.62,11.45-7.76,19.22-11.28l-.22.06S206.94,168.38,206.23,165.66Z" style="fill: rgb(55, 71, 79); transform-origin: 210.4px 162.765px;" id="elfhkh15cmbs" class="animable"></path><path d="M202.53,138.88a42.47,42.47,0,0,1,13.73-1.58c6.46.06,31.35-8.75,38.15-10.92,7-2.21,13.49-4.8,13.49-4.8s-8.89,3.26-3.68,22.58c3.84,14.23,11.55,12.93,11.55,12.93s-23.41,5.54-35,8-25.33,7.64-29.91,11.56-7.28,10.46-7.28,10.46Z" style="fill: rgb(38, 50, 56); transform-origin: 239.15px 154.345px;" id="el26xpkfgea8q" class="animable"></path></g><path id="freepik--Chest--inject-2" d="M146.75,136.06c5.86-2.05,7.91-3.07,10.33-4.09,0,0,8.4,15,11.84,20.57s13,27,13,27c1.6-11.89,3.21-33.48,1.21-43.47,0,0,10.9,4.46,20,5,1.62,9.77-.13,25.77-1.92,35.87a306.7,306.7,0,0,0-4.37,47.29c-4.16,15.64-60.45,26.95-77.5,8.44,1-14,2.22-20.2,4-32.21,1.43-9.54,3-21.33,3.91-29.82,1-10,3-21.59,5.09-25.93S140.9,138.1,146.75,136.06Z" style="fill: rgb(69, 90, 100); transform-origin: 161.556px 187.115px;" class="animable"></path><g id="freepik--Head--inject-2" class="animable" style="transform-origin: 176.579px 134.355px;"><path d="M181.81,138.46a45.19,45.19,0,0,1,1.95,12.63c.23,7.85-2,29-2,29l-24.2-48.38,1.17-2.58Z" style="fill: rgb(224, 224, 224); transform-origin: 170.668px 154.61px;" id="el8gtlfugow26" class="animable"></path><g id="freepik--head--inject-2" class="animable" style="transform-origin: 176.579px 113.205px;"><path d="M155.77,96.39c-1.3,12.73,5.72,18.84,5.73,26,1,6,12.6-3.39,19.69-4.05,12.31-1.14,18.82-9.89,19.25-20.77.4-10-8.91-19.59-22.44-18.47C165.68,80.1,156.86,85.68,155.77,96.39Z" style="fill: rgb(38, 50, 56); transform-origin: 178.031px 101.697px;" id="eln81js9y25x" class="animable"></path><path d="M164.13,110.23c-1.33.54-1.45-2.63-3-3.93-1.37-1.17-5.37-2.55-7.44.55-2.67,4-.33,8.11,2.59,10.66,1.74,1.52,4.44,1.66,5.48.68-.34,4.6-1.37,7.11-1.15,8.92l-.61,3.31a12.32,12.32,0,0,0,2.07,3.93c3.18,4,10.39,8.88,17.94,13.05a14.77,14.77,0,0,0,1.33-6.36l1.16-6.6a20.55,20.55,0,0,0,7-.12c4-.9,7.65-4.7,9.3-8.94,3.13-8.08.89-13.7,1.16-18.38.12-2,.76-5.66.67-7.85-.3-7.33-4.11-9.86-7.61-11-5.5-1.84-13.3-2-19.75,2a4.52,4.52,0,0,0-2.2,4.94c.53,5.51-2.67,6.87-4.46,9.33C165,106.61,166.75,109.19,164.13,110.23Z" style="fill: rgb(177, 102, 104); transform-origin: 176.579px 117.152px;" id="eltt5uqb2tb7g" class="animable"></path><path d="M182.52,134.44s-7.93-2-12.45-5.37c-2.79-2.06-4.19-6.63-4.52-7.94a13.94,13.94,0,0,0,2.35,8.19c3.06,4.46,14.12,8,14.12,8Z" style="fill: rgb(154, 74, 77); transform-origin: 174.032px 129.225px;" id="el4ncj33ha62f" class="animable"></path><path d="M186,101.79a2.25,2.25,0,0,0-.06-.36c0-.06,0-.24-.11-.27a.07.07,0,0,0-.09,0,.28.28,0,0,0,0,.09,2.72,2.72,0,0,1-.41,1.24,4,4,0,0,1-.67.87,1.24,1.24,0,0,0-.19.21c-.1.19,0,.39.2.36a1.37,1.37,0,0,0,.79-.5,2.5,2.5,0,0,0,.54-1.31C186,102,186,101.91,186,101.79Z" style="fill: rgb(154, 74, 77); transform-origin: 185.215px 102.538px;" id="elpc12smtfjsg" class="animable"></path><path d="M177.17,106l-.1-.07-.15,0-.14,0c-.15,0-.3-.1-.45-.15l-.58-.16c-.2-.06-.4-.13-.6-.18a.5.5,0,0,0-.51.11.28.28,0,0,0,0,.29.65.65,0,0,0,.49.43c.41.12.83.21,1.25.29l.23,0c.15,0,.31.06.45.07s.36,0,.41-.14A.39.39,0,0,0,177.17,106Z" style="fill: rgb(154, 74, 77); transform-origin: 176.042px 106.022px;" id="elds2q4aijsqn" class="animable"></path><path d="M176.94,108.22a.46.46,0,0,0-.2-.19s-.23-.06-.23,0l-.91,0-.79,0-.75,0a1.94,1.94,0,0,0-.54.05c-.13,0-.21.17-.3.27a.17.17,0,0,0,0,.24,1.46,1.46,0,0,0,.53.22,2.7,2.7,0,0,0,.49,0l.8,0a5.41,5.41,0,0,0,1.79-.18C177,108.57,177,108.34,176.94,108.22Z" style="fill: rgb(154, 74, 77); transform-origin: 175.073px 108.413px;" id="elcskecxygk24" class="animable"></path><path d="M180.31,110.61a4.84,4.84,0,0,0-.65-.19,5.54,5.54,0,0,1-.58-.17l-.56-.2-.28-.12a.66.66,0,0,0-.27-.06c-.07,0-.08.14,0,.19a1.68,1.68,0,0,0,.61.39,3.43,3.43,0,0,0,.44.19c.21.08.43.15.65.21a1.61,1.61,0,0,0,.65.07C180.41,110.9,180.42,110.66,180.31,110.61Z" style="fill: rgb(154, 74, 77); transform-origin: 179.152px 110.399px;" id="elcblyq82qx0m" class="animable"></path><path d="M196.82,110.72a.3.3,0,0,0,0-.1l-.05-.07c-.05-.1-.27,0-.35,0l-.18,0a2,2,0,0,1-.35,0,2.91,2.91,0,0,1-.72,0c-.08,0-.11.08-.11.14s0,.2.11.22a2.23,2.23,0,0,0,.81.14l.38,0a1.6,1.6,0,0,0,.39-.11.15.15,0,0,0,.09-.14Z" style="fill: rgb(154, 74, 77); transform-origin: 195.95px 110.778px;" id="elj8ysu0akx7" class="animable"></path><path d="M199.66,106.52a1.24,1.24,0,0,0-.43.11l-.36.1-.35.07c-.11,0-.23,0-.34.08s-.1.15-.08.22.07.2.17.22a2.32,2.32,0,0,0,.91,0l.36-.08.18,0a.4.4,0,0,0,.22-.14C200.07,106.85,199.86,106.53,199.66,106.52Z" style="fill: rgb(154, 74, 77); transform-origin: 199.034px 106.943px;" id="eltk7bzjifpv" class="animable"></path><path d="M200.49,108.86a.51.51,0,0,0-.24-.22c-.1,0-.14,0-.09,0h0a1.43,1.43,0,0,0-.28-.07l-.46-.08-.61-.07a1.18,1.18,0,0,0-.53,0c-.26.1-.11.45.09.54a3.18,3.18,0,0,0,.69.18l.45.1.46.09a.77.77,0,0,0,.4,0A.3.3,0,0,0,200.49,108.86Z" style="fill: rgb(154, 74, 77); transform-origin: 199.35px 108.873px;" id="elcaee2ud6n1i" class="animable"></path><path d="M185,115.87a10.28,10.28,0,0,1-2.58,1.46,9,9,0,0,0-2.48,1.09,7,7,0,0,0-1.5,1.88,7.65,7.65,0,0,0-.93,2.25s0,0,0,0a8,8,0,0,1,1.06-2.13,6,6,0,0,1,2-1.67,20.21,20.21,0,0,1,2.44-1.06,5.71,5.71,0,0,0,2.14-1.51C185.27,116.08,185.12,115.76,185,115.87Z" style="fill: rgb(154, 74, 77); transform-origin: 181.352px 119.199px;" id="elpvkyrnr3d9" class="animable"></path><path d="M185.74,119.65a3.68,3.68,0,0,0-2.71-.11c-.9.35-1.59.86-1.46,1.45.05.24.64,1.46,2.93,2.38a5,5,0,0,0,3.78.17c.46-.16.26-1.39-.2-2.1A4.24,4.24,0,0,0,185.74,119.65Z" style="fill: rgb(154, 74, 77); transform-origin: 185.048px 121.582px;" id="elfwuqvpg4k6t" class="animable"></path><path d="M185.67,123.72a3.54,3.54,0,0,0-3.18-3.68,3.15,3.15,0,0,0-.44,0c-.36.27-.56.58-.48.92s.64,1.46,2.93,2.38A6.32,6.32,0,0,0,185.67,123.72Z" style="fill: rgb(242, 143, 143); transform-origin: 183.613px 121.876px;" id="eltxcdlv7v7nm" class="animable"></path><path d="M185.59,125.79a6.23,6.23,0,0,1-1.81-.34l-.43-.15a4.13,4.13,0,0,1-1-.58,4.44,4.44,0,0,1-.79-.83s-.12-.19-.19-.17,0,.39,0,.45a2.17,2.17,0,0,0,.13.5,2,2,0,0,0,.59.81,3.52,3.52,0,0,0,1.14.67,4.88,4.88,0,0,0,2.49.15c.35-.07.69-.22.54-.42l-.08,0a.89.89,0,0,0-.33,0Z" style="fill: rgb(154, 74, 77); transform-origin: 183.818px 125.057px;" id="eln9gsjrft0hk" class="animable"></path><path d="M182,107.92a1.84,1.84,0,0,1-2.05,1.61,1.88,1.88,0,1,1,2.05-1.61Z" id="elj1qdcif0gi" class="animable" style="transform-origin: 180.138px 107.661px;"></path><path d="M183.31,102.49,179.14,101a2.33,2.33,0,0,1,2.9-1.38A2.16,2.16,0,0,1,183.31,102.49Z" style="fill: rgb(38, 50, 56); transform-origin: 181.309px 100.997px;" id="els6soc8r81aq" class="animable"></path><path d="M193.73,103.6l4.41-.36a2.33,2.33,0,0,0-2.46-2.07A2.16,2.16,0,0,0,193.73,103.6Z" style="fill: rgb(38, 50, 56); transform-origin: 195.926px 102.383px;" id="elwi6073v8u8" class="animable"></path><path d="M197.52,108.19a1.82,1.82,0,0,1-2.05,1.6,1.88,1.88,0,1,1,2.05-1.6Z" id="ely0kprqsyrd" class="animable" style="transform-origin: 195.66px 107.923px;"></path><path d="M187.83,104.86l.92,12.42,7.1-1.81C194.39,111.27,190.82,107.27,187.83,104.86Z" style="fill: rgb(154, 74, 77); transform-origin: 191.84px 111.07px;" id="eljjabqiarph" class="animable"></path></g><path d="M177.65,150.21c-.6,4.39-1.27,14.11-1.2,16.26s5.63,15.83,5.63,15.83,1.32-12.07,1.53-15.88-2.55-16.06-2.55-16.06.52-1.19-1.1-1.3A2.45,2.45,0,0,0,177.65,150.21Z" style="fill: rgb(38, 50, 56); transform-origin: 180.033px 165.675px;" id="el51fua9yjs9a" class="animable"></path><path d="M180.14,144.58c1-1,1.8-6.81,1.8-6.81q1,6,1.39,11.77Z" style="fill: rgb(240, 240, 240); transform-origin: 181.735px 143.655px;" id="elxfafqinnqch" class="animable"></path><path d="M176.88,144.93a4.84,4.84,0,0,1,3.58-.26s1.53,1,1.54,2.13a13.94,13.94,0,0,1-.94,3.56c.06-1.31-2.31-1.16-3.41-.15l-3.37-3.74A2.39,2.39,0,0,1,176.88,144.93Z" style="fill: rgb(38, 50, 56); transform-origin: 178.14px 147.402px;" id="el6hiap8e4u2p" class="animable"></path><path d="M158.33,130.2c.67-2.86,2.3-3.09,2.3-3.09h0c0,1,.55,2.38,1.93,4.5a19.84,19.84,0,0,0,3.85,4c2.91,2.5,11.4,8.54,11.82,8.91-1.07.3-3.11,2.05-4.37,3.27s-4.37,4.87-4.37,4.87S157.14,135.3,158.33,130.2Z" style="fill: rgb(240, 240, 240); transform-origin: 168.24px 139.885px;" id="eltinaprt9fcs" class="animable"></path><path d="M158.68,129.1c-.14,1.38,1.4,4.55,3.32,7.46s3.5,4.58,6.06,9.65,10.37,21.73,12.26,27.74,3.83,15.75,3.83,15.75-4.38-11-8.57-17.63-9.38-14-10.28-15.92l-.07-3.91L160.39,149a59.8,59.8,0,0,1-6.31-15.75A43.22,43.22,0,0,0,158.68,129.1Z" style="fill: rgb(69, 90, 100); transform-origin: 169.115px 159.4px;" id="eltmei0ym2hpj" class="animable"></path><path d="M182.36,135.36c1.21.61,1.63,1,2.6,3.59s2.06,11.93,2.33,12.17-2,1.9-2,1.9,1.49,4.16,1.44,5.43-2.89,17.74-4.61,23.85c0,0,1.29-21.36,1.09-29.09a121.79,121.79,0,0,0-1.36-14.75Z" style="fill: rgb(69, 90, 100); transform-origin: 184.581px 158.83px;" id="elvrojbuag9x" class="animable"></path></g><path id="freepik--Dress--inject-2" d="M183.91,136.39s7.69,24.76-3.67,26.86c-17.1,3.16-24.11-31.71-24.11-31.71L132.7,141s-4.15,7.53-6.23,22.3-1.76,20.65-4.16,37.13-5.43,30.85-4.79,42.2,7,22.43,21.09,33.51,31.16,24.81,35,29.45,2.08,16.56,2.08,24.43c0,5.77-.16,20.95-.16,20.95s4.15,3.22,19.33,4.72S240.8,344.67,246,326.55c0,0,1.79-17.41,2.07-32.43s3-26.59-9-36.32a273.16,273.16,0,0,1-32-31.23c-4-4.79-6.72-12.88-6.38-18.74.48-8.29,3.16-19.9,4.43-33s.19-30.56-2.69-35.94Z" style="fill: rgb(55, 71, 79); transform-origin: 182.98px 243.676px;" class="animable"></path><path d="M205.56,156A132,132,0,0,1,185,159.57a7.57,7.57,0,0,1-.64,1.07,136.25,136.25,0,0,0,21.24-3.59C205.6,156.7,205.58,156.36,205.56,156Z" style="fill: rgb(38, 50, 56); transform-origin: 194.98px 158.32px;" id="el31ej5css3xi" class="animable"></path><path d="M127.45,157.56c-.06.32-.13.65-.19,1,3.71,1,14.53,3.37,32.82,3.37,3.62,0,7.55-.1,11.76-.31-.46-.29-.91-.6-1.36-.94C145.78,161.8,131.64,158.68,127.45,157.56Z" style="fill: rgb(38, 50, 56); transform-origin: 149.55px 159.745px;" id="elyabjg3t62l" class="animable"></path><g id="freepik--wig--inject-2" class="animable" style="transform-origin: 169.425px 110.819px;"><path d="M182.91,77.52l1,.23a39.29,39.29,0,0,1,6.82,2.52,51.39,51.39,0,0,1,6.16,3,9.83,9.83,0,0,1,3,3A8.85,8.85,0,0,1,201,90.39c.21,2.44-.75,5-.38,7.36a11.11,11.11,0,0,0-3.48-6.63,7.5,7.5,0,0,0-2.71-1.79,8.4,8.4,0,0,0-3.49-.27,3.79,3.79,0,0,0-1.41.64,8.66,8.66,0,0,0-2.38-2.6,15.76,15.76,0,0,0-3.58-1.9c-3.68-1.45-7.45-2.7-11.19-4-.52-.19-1.29-.57-.93-1.25a1.81,1.81,0,0,1,.83-.69,16.43,16.43,0,0,1,6.44-2.12A15.07,15.07,0,0,1,182.91,77.52Z" style="fill: rgb(224, 224, 224); transform-origin: 186.194px 87.4357px;" id="elmoxbku7z1o9" class="animable"></path><path d="M179.53,81.75a35.59,35.59,0,0,0-10.43-3,15.72,15.72,0,0,0-4.28.07,12.17,12.17,0,0,0-9.44,8.26,1.16,1.16,0,0,0,0,.71c.24.69,3.11.79,3.79,1,1.49.37,2.94.83,4.38,1.33.79.28,8.31,3.33,8.57,2.89a7.81,7.81,0,0,1,3.05-3c4.14-2.3,9.06-2.94,13.33-.9a11,11,0,0,1,1,.63,2.61,2.61,0,0,0-.11-1.64,6.33,6.33,0,0,0-3.41-3.2c-1.78-.91-3.56-1.81-5.38-2.64Z" style="fill: rgb(235, 235, 235); transform-origin: 172.454px 85.8449px;" id="el69dq57iq3pg" class="animable"></path><path d="M147.59,140.59a59.52,59.52,0,0,0,10.95,3.69c2,.46,4.68.52,6.2-2.41a11.49,11.49,0,0,0,1-5.41c-.47-2.61-1.38-3.87-2.61-4.77,1.21-.08,2.1-1.29,2.71-2.35a9.14,9.14,0,0,0,1-3.81c.11-2.4,0-4.56-1.44-6.29,1.85-.87,2.86-1.33,3.62-3.52a8.12,8.12,0,0,0,.08-5.28,4.57,4.57,0,0,0-1.23-2c1.48-.29,2.4-1.93,2.75-3.8a5.13,5.13,0,0,0-1.09-4.66,5.82,5.82,0,0,0,3-3.58,6.82,6.82,0,0,0,.11-2.88c-.13-.72-.37-1.45-.93-1.7a25.18,25.18,0,0,0-2.85-1c-1-.3-1.91-.59-2.87-.86-1.84-.52-3.7-1-5.57-1.34-.9-.17-1.8-.32-2.7-.44a7.83,7.83,0,0,0-2.48-.26,4.64,4.64,0,0,0-2.92,6,5.41,5.41,0,0,0-4.44,3.91,7.29,7.29,0,0,0,1.12,6A6.11,6.11,0,0,0,146.47,114c-4.7,1.44-6.48,7.75-4.14,11.85a6.09,6.09,0,0,0-4.24,4c-1.08,3.35,1.24,6.4,4,8C143.87,138.8,145.7,139.74,147.59,140.59Z" style="fill: rgb(224, 224, 224); transform-origin: 155.282px 116.212px;" id="elvgwu9v9kgii" class="animable"></path><path d="M171.72,91.77c-.21-.1-.43-.18-.64-.26a4.46,4.46,0,0,0-3.43,7.86,4.59,4.59,0,0,0-2.17,8.62,5.58,5.58,0,0,0-1.68,10.21c-2.91-.48-5.65,2.22-6,5.14s1,5.82,2.88,8.11c-.53-.64-2.24.54-2.6.88a8.65,8.65,0,0,0-1.61,2.28,8.14,8.14,0,0,0-.67,5.85,6.81,6.81,0,0,0,3.13,3.89c2,.39,4.41.28,5.85-2.48a11.49,11.49,0,0,0,1-5.41c-.47-2.61-1.38-3.87-2.61-4.77,1.21-.08,2.1-1.29,2.71-2.35a9.14,9.14,0,0,0,1-3.81c.11-2.4,0-4.56-1.44-6.29,1.85-.87,2.86-1.33,3.62-3.52a8.12,8.12,0,0,0,.08-5.28,4.57,4.57,0,0,0-1.23-2,4.6,4.6,0,0,0,3.32-3.64,6.37,6.37,0,0,0-1-4.62,5,5,0,0,0,2.84-3.24,8.28,8.28,0,0,0,.06-3.16A3.27,3.27,0,0,0,171.72,91.77Z" style="fill: rgb(240, 240, 240); transform-origin: 164.394px 117.993px;" id="elapi7957t9g6" class="animable"></path><g id="elb8nc9a6jbek"><g style="opacity: 0.1; transform-origin: 152.015px 112.015px;" class="animable"><path d="M141.32,126.19l3.53,1.21a108.57,108.57,0,0,0,10.51,3.19c.12,0,.12-.2,0-.23-3.5-1.4-7.1-2.55-10.64-3.82-.85-.3-1.68-.63-2.52-.94a1.36,1.36,0,0,0,.1.21A5.12,5.12,0,0,0,141.32,126.19Z" id="eld7gq9uviaa5" class="animable" style="transform-origin: 148.385px 128.095px;"></path><path d="M154,116c-1.42-.4-2.84-.81-4.25-1.25-1.21-.37-2.41-.75-3.62-1.14.11.12.21.25.33.37a6.63,6.63,0,0,0-.91.36c1.35.42,2.71.83,4.08,1.19s2.87.76,4.31,1.11c.85.21,1.69.42,2.55.61a10.78,10.78,0,0,0,2,.37c.18,0,.13-.3,0-.35A39.13,39.13,0,0,0,154,116Z" id="el55pope7t4pv" class="animable" style="transform-origin: 152.078px 115.615px;"></path><path d="M161.35,107.34c-3-.82-6-1.85-9-2.87-1.26-.44-2.52-.9-3.77-1.37a7.45,7.45,0,0,0,.43.71,4.16,4.16,0,0,0-.62.23c1.43.48,2.87.91,4.29,1.35,2.85.87,5.74,1.53,8.64,2.2C161.44,107.61,161.45,107.37,161.35,107.34Z" id="elq0ia2kgtmss" class="animable" style="transform-origin: 154.904px 105.346px;"></path><path d="M155.9,94.74l-3.15-1.09-.55-.21a3.62,3.62,0,0,0,.13.47,4.35,4.35,0,0,0-1,.23l1.11.3L156,95.52c1.07.32,2.14.65,3.22,1s2.3.56,3.43.89c.07,0,.09-.12,0-.14-1.14-.4-2.25-.9-3.38-1.31S157,95.12,155.9,94.74Z" id="el7bt9cqxcz03" class="animable" style="transform-origin: 157.02px 95.425px;"></path></g></g></g><g id="freepik--arm--inject-2" class="animable" style="transform-origin: 122.563px 205.485px;"><path d="M105.17,238.62c2,4.67,9.47,3,15.89-2.41,7.85-6.58,9.43-8.86,7.57-13.63C126.22,216.4,102.73,223.59,105.17,238.62Z" id="elvx9jef8rcq" class="animable" style="transform-origin: 117.164px 230.856px;"></path><path d="M131.53,231.52c1.48,4.2,2.71,5.84,4.18,7.11s5.28,2.87,7.85,4.72c2.95,2.12,3.15,2.59,5.95,4.15s3.85,2.44,2.51,3.36c-1.79,1.23-5.08.45-7.64-.35-.79-.25-4.8-2.21-5.28-1.36a1.82,1.82,0,0,0,.09,1.51c1.24,3.21,3.61,5.84,5.93,8.39s4.49,4.95,6.74,7.42a5.66,5.66,0,0,1,1.73,3,1.57,1.57,0,0,1-.24,1.14,1.6,1.6,0,0,1-.81.53,4.16,4.16,0,0,1-3.39-.77,19.56,19.56,0,0,0-3-1.93c-2.08-.85-4.63-.28-6.54-1.47a5.57,5.57,0,0,0-1.81-1,5.21,5.21,0,0,0-1.47.08,4.73,4.73,0,0,1-3.2-.83,9.26,9.26,0,0,0-1.29-.89,12.91,12.91,0,0,0-2.32-.48,4.66,4.66,0,0,1-2.69-2.17c-1.6-2.6-2.45-6-3.63-8.77A73.87,73.87,0,0,0,117.36,241C119.4,232.21,131.53,231.52,131.53,231.52Z" style="fill: rgb(177, 102, 104); transform-origin: 135.487px 251.375px;" id="el22meuiy43c8" class="animable"></path><path d="M130.35,227l3,7.44s-10.75.55-15.45,9.11l-8-13.51S120.61,220.79,130.35,227Z" style="fill: rgb(224, 224, 224); transform-origin: 121.625px 234.203px;" id="elucj6fjlg84i" class="animable"></path><path d="M134.73,140.68c-9.83,2.38-14.79,3-22.11,17-4.88,9.35-15.71,26-17.93,31.5s-3.45,7.94-.06,15.57,17,32.57,17,32.57S117,227.48,130.35,227L119,197.73l15.56-22.39S144.74,154.51,134.73,140.68Z" style="fill: rgb(69, 90, 100); transform-origin: 115.832px 189px;" id="elck0q13vuae5" class="animable"></path><path d="M134.52,175.34c4.06-10.93,6.71-24.15.21-34.66a21.19,21.19,0,0,1,2.46,3.83c4.57,9.81,2.1,21.55-2.67,30.83Z" style="fill: rgb(55, 71, 79); transform-origin: 137.066px 158.01px;" id="el8v5ugtthtso" class="animable"></path><path d="M135.9,139.74c-4.21,1.29-12.26-.71-17.38,6.88s-16.28,27.61-19,32.19-7.39,12-7.87,17.47c-.45,5.18.19,6.58,2.2,12.62s11.34,29.72,11.34,29.72A16.68,16.68,0,0,1,115.51,224c10.42-4.59,13.12-1.43,13.12-1.43L120.26,198l15.23-22C140.11,170,144.4,152,135.9,139.74Z" style="fill: rgb(38, 50, 56); transform-origin: 116.139px 189.18px;" id="el1f4ct5bqsic" class="animable"></path></g></g></g><path d="M101,287.91,148.92,312l-1-17.65,7.39-4.27c-.53-13.69-4.28-27.73-14-30.84-12.12-3.83-27.84-5.07-37.27-13.61s-9-32-7.9-45.46,4.71-34.35-6.05-40.56-21,.7-21,.7c-4.6,3-9.94,5.14-9.49,8.76a3.92,3.92,0,0,0,3.27,3.69L89.67,274A21.82,21.82,0,0,0,101,287.91Z" style="fill: rgb(232, 51, 99); transform-origin: 107.442px 234.51px;" id="eljkpm8u6hoy" class="animable"></path><g id="el438ixx9oqi8"><g style="opacity: 0.4; transform-origin: 107.442px 234.51px;" class="animable"><path d="M101,287.91,148.92,312l-1-17.65,7.39-4.27c-.53-13.69-4.28-27.73-14-30.84-12.12-3.83-27.84-5.07-37.27-13.61s-9-32-7.9-45.46,4.71-34.35-6.05-40.56-21,.7-21,.7c-4.6,3-9.94,5.14-9.49,8.76a3.92,3.92,0,0,0,3.27,3.69L89.67,274A21.82,21.82,0,0,0,101,287.91Z" id="eld99v01so74" class="animable" style="transform-origin: 107.442px 234.51px;"></path></g></g><path d="M83.06,172.09c4.3,5.15,6.52,13.33,5.73,33.43s-.47,36.31,7.39,46.16c9.33,11.68,41.31,21,41.31,21L150,267c-2.12-3.75-4.95-6.54-8.65-7.72-12.12-3.83-27.85-5.07-37.27-13.61s-9-32-7.9-45.46,4.7-34.35-6-40.56-21,.7-21,.7c-4.6,3-10,5.14-9.49,8.76a3.88,3.88,0,0,0,3.27,3.68C68.92,170.78,78.76,166.94,83.06,172.09Z" style="fill: rgb(232, 51, 99); transform-origin: 104.828px 214.87px;" id="elqy062wu00n" class="animable"></path><g id="el7lqlp809a3o"><path d="M83.06,172.09c4.3,5.15,6.52,13.33,5.73,33.43s-.47,36.31,7.39,46.16c9.33,11.68,41.31,21,41.31,21L150,267c-2.12-3.75-4.95-6.54-8.65-7.72-12.12-3.83-27.85-5.07-37.27-13.61s-9-32-7.9-45.46,4.7-34.35-6-40.56-21,.7-21,.7c-4.6,3-10,5.14-9.49,8.76a3.88,3.88,0,0,0,3.27,3.68C68.92,170.78,78.76,166.94,83.06,172.09Z" style="opacity: 0.2; transform-origin: 104.828px 214.87px;" class="animable"></path></g><path d="M148.3,294.33l7.39-4.27c0-8.19-2.12-26-12.48-30.3-8.24-3.42-12.21,1.61-12.12,4.7.1,3.49,2.23,5.81,6.4,8.21C143,275.85,148.3,281.53,148.3,294.33Z" style="fill: rgb(232, 51, 99); transform-origin: 143.389px 276.472px;" id="elnyblibe8shq" class="animable"></path><path d="M148.3,294.33l7.39-4.27c0-8.19-2.12-26-12.48-30.3-8.24-3.42-12.21,1.61-12.12,4.7.1,3.49,2.23,5.81,6.4,8.21C143,275.85,148.3,281.53,148.3,294.33Z" style="fill: rgb(232, 51, 99); transform-origin: 143.389px 276.472px;" id="elk3iw7lzqwbb" class="animable"></path><g id="el9edcaaj9k78"><path d="M148.3,294.33l7.39-4.27c0-8.19-2.12-26-12.48-30.3-8.24-3.42-12.21,1.61-12.12,4.7.1,3.49,2.23,5.81,6.4,8.21C143,275.85,148.3,281.53,148.3,294.33Z" style="opacity: 0.1; transform-origin: 143.389px 276.472px;" class="animable"></path></g></g></g><g id="freepik--Podium--inject-2" class="animable" style="transform-origin: 291.11px 329.95px;"><g id="freepik--podium--inject-2" class="animable" style="transform-origin: 291.11px 329.95px;"><polygon points="257.83 453.74 278.06 465.42 278.06 311.52 202.19 267.72 202.19 421.62 257.83 453.74" style="fill: rgb(232, 51, 99); transform-origin: 240.125px 366.57px;" id="elr3qf2fnvpf" class="animable"></polygon><g id="eldj22itc0sgs"><polygon points="257.83 453.74 278.06 465.42 278.06 311.52 202.19 267.72 202.19 421.62 257.83 453.74" style="opacity: 0.25; transform-origin: 240.125px 366.57px;" class="animable"></polygon></g><polygon points="278.06 311.52 376.92 254.45 376.92 408.35 278.06 465.42 278.06 311.52" style="fill: rgb(232, 51, 99); transform-origin: 327.49px 359.935px;" id="elmkltlxzkmxo" class="animable"></polygon><polygon points="301.05 210.65 202.19 267.72 278.06 311.52 376.92 254.45 301.05 210.65" style="fill: rgb(232, 51, 99); transform-origin: 289.555px 261.085px;" id="eljxjqx5z5zq" class="animable"></polygon><g id="elhwm0pm6gorq"><polygon points="301.05 210.65 202.19 267.72 278.06 311.52 376.92 254.45 301.05 210.65" style="opacity: 0.1; transform-origin: 289.555px 261.085px;" class="animable"></polygon></g><g id="eln6fadazzseo"><polygon points="283.12 326.12 283.12 444.98 284.56 444.14 284.56 325.28 283.12 326.12" style="opacity: 0.2; transform-origin: 283.84px 385.13px;" class="animable"></polygon></g><g id="elg47jn2ot3jm"><polygon points="286.73 324.03 286.73 442.89 288.17 442.06 288.17 323.19 286.73 324.03" style="opacity: 0.2; transform-origin: 287.45px 383.04px;" class="animable"></polygon></g><g id="elfwe70kei8t"><polygon points="290.34 321.94 290.34 440.8 291.78 439.96 291.78 321.11 290.34 321.94" style="opacity: 0.2; transform-origin: 291.06px 380.955px;" class="animable"></polygon></g><g id="eln0hgcf1saqf"><polygon points="363.19 279.9 363.19 398.76 364.63 397.93 364.64 279.07 363.19 279.9" style="opacity: 0.2; transform-origin: 363.915px 338.915px;" class="animable"></polygon></g><g id="elmgzr6srpdih"><polygon points="366.8 277.81 366.8 396.67 368.25 395.84 368.25 276.98 366.8 277.81" style="opacity: 0.2; transform-origin: 367.525px 336.825px;" class="animable"></polygon></g><g id="el2b3735l2bat"><polygon points="370.41 275.72 370.41 394.58 371.86 393.75 371.86 274.89 370.41 275.72" style="opacity: 0.2; transform-origin: 371.135px 334.735px;" class="animable"></polygon></g><g id="elnvk3o5iuyem"><polygon points="298.29 339.09 356.68 305.39 356.68 381.31 298.29 415.02 298.29 339.09" style="opacity: 0.1; transform-origin: 327.485px 360.205px;" class="animable"></polygon></g><g id="el9pewjnakuut"><polygon points="354.32 379.77 356.68 381.31 298.29 415.02 298.29 412.12 354.32 379.77" style="opacity: 0.25; transform-origin: 327.485px 397.395px;" class="animable"></polygon></g><g id="elcvkv659j54l"><polygon points="354.32 306.75 298.29 339.09 298.29 412.12 354.32 379.77 354.32 306.75" style="opacity: 0.1; transform-origin: 326.305px 359.435px;" class="animable"></polygon></g><polygon points="342.98 326.17 308.25 346.1 308.45 391.09 310.32 392.34 344.85 372.4 344.85 327.41 342.98 326.17" style="fill: rgb(232, 51, 99); transform-origin: 326.55px 359.255px;" id="eliixizttu5uq" class="animable"></polygon><polygon points="344.85 327.41 310.12 347.34 310.32 392.34 344.85 372.4 344.85 327.41" style="fill: rgb(232, 51, 99); transform-origin: 327.485px 359.875px;" id="eln69jke93ro" class="animable"></polygon><g id="elikbgmlg881"><polygon points="342.98 326.17 344.85 327.41 310.12 347.34 308.25 346.1 342.98 326.17" style="opacity: 0.25; transform-origin: 326.55px 336.755px;" class="animable"></polygon></g><g id="el1xba5i4lnvr"><polygon points="308.25 346.1 310.12 347.34 310.32 392.34 308.45 391.09 308.25 346.1" style="opacity: 0.1; transform-origin: 309.285px 369.22px;" class="animable"></polygon></g><g id="elh55qi97pvg"><path d="M337.92,350.21h0l-3.24-5.05a.45.45,0,0,0,0-.11v-.27c0-.24-.15-.35-.33-.25l-6.61,3.82v-2.11c0-.43-.21-.67-.46-.53a1.34,1.34,0,0,0-.45,1.06v2.1l-6.61,3.82a.79.79,0,0,0-.34.64v.07l-3.23,8.79s0,0,0,0a.24.24,0,0,0,0,.08c0,1.77.55,3.1,1.51,3.65a2,2,0,0,0,1,.27,2.65,2.65,0,0,0,1.35-.4c1.94-1.12,3.52-4.43,3.52-7.38a.35.35,0,0,0-.05-.18h0l-3.07-4.79,5.94-3.43V367.8l-2.15,1.25a2.4,2.4,0,0,0-1,1.93v.69l-.5.28a4.73,4.73,0,0,0-2,3.78v.19l12.17-7v-.19c0-1.46-.88-2.13-2-1.5l-.5.29v-.69c0-.74-.45-1.09-1-.76l-2.15,1.24V349.49l5.77-3.33-2.93,8s0,0,0,0a.24.24,0,0,0,0,.08c0,1.77.55,3.09,1.51,3.65a2,2,0,0,0,1,.27,2.78,2.78,0,0,0,1.35-.4c1.94-1.12,3.52-4.43,3.52-7.38A.35.35,0,0,0,337.92,350.21ZM320.43,354l2.78,4.34-5.56,3.21Zm-.25,11.25a1.65,1.65,0,0,1-1.67.13,3.32,3.32,0,0,1-1.16-2.86l6-3.45C323.14,361.6,321.8,364.28,320.18,365.22Zm17-15-5.56,3.21,2.78-7.55Zm-3,6.9a1.65,1.65,0,0,1-1.67.14,3.32,3.32,0,0,1-1.16-2.86l6-3.46C337.07,353.56,335.73,356.24,334.11,357.17Z" style="opacity: 0.25; transform-origin: 327.295px 360.207px;" class="animable"></path></g><polygon points="278.09 316.41 278.08 301.13 383.53 240.32 383.53 255.6 278.09 316.41" style="fill: rgb(232, 51, 99); transform-origin: 330.805px 278.365px;" id="elrffuud6m96j" class="animable"></polygon><polygon points="278.08 301.13 198.69 255.3 198.69 270.58 278.08 316.41 278.08 301.13" style="fill: rgb(232, 51, 99); transform-origin: 238.385px 285.855px;" id="elbiywtk80z3g" class="animable"></polygon><g id="eldbgfztquyn"><polygon points="278.08 301.13 198.69 255.3 198.69 270.58 278.08 316.41 278.08 301.13" style="opacity: 0.25; transform-origin: 238.385px 285.855px;" class="animable"></polygon></g><g id="elh155xwe08if"><polygon points="376.91 264.7 376.91 259.42 278.09 316.41 202.19 272.59 202.19 277.88 278.08 321.7 376.91 264.7" style="opacity: 0.2; transform-origin: 289.55px 290.56px;" class="animable"></polygon></g><polygon points="278.08 301.13 198.69 255.3 304.14 194.48 383.53 240.32 278.08 301.13" style="fill: rgb(232, 51, 99); transform-origin: 291.11px 247.805px;" id="elze5d8cfjhq" class="animable"></polygon><g id="ell6sh7iy4shk"><polygon points="278.08 301.13 198.69 255.3 304.14 194.48 383.53 240.32 278.08 301.13" style="fill: rgb(255, 255, 255); opacity: 0.3; transform-origin: 291.11px 247.805px;" class="animable"></polygon></g><g id="freepik--Base--inject-2" class="animable" style="transform-origin: 343.638px 239.44px;"><path d="M356.07,232.32c-6.87-4-18-4-24.86,0-3.44,2-5.14,4.58-5.13,7.17v2.69c0,2.6,1.69,5.2,5.13,7.18,6.86,4,18,4,24.86,0,3.43-2,5.14-4.58,5.13-7.18v-2.69C361.21,236.9,359.5,234.3,356.07,232.32Z" style="fill: rgb(38, 50, 56); transform-origin: 343.64px 240.84px;" id="el29lnkrt6mhk" class="animable"></path><path d="M331.21,232.32c-6.87,4-6.87,10.39,0,14.35s18,4,24.86,0,6.87-10.39,0-14.35S338.07,228.35,331.21,232.32Z" style="fill: rgb(69, 90, 100); transform-origin: 343.638px 239.501px;" id="elxdul9fq7xk" class="animable"></path><path d="M353.91,229c-5.67-3.28-14.87-3.28-20.55,0-2.83,1.64-4.24,3.78-4.24,5.93v4c0,2.14,1.41,4.29,4.24,5.93,5.68,3.28,14.88,3.28,20.55,0,2.84-1.64,4.25-3.79,4.25-5.93v-4C358.16,232.76,356.75,230.62,353.91,229Z" style="fill: rgb(55, 71, 79); transform-origin: 343.64px 236.93px;" id="elwdxh3dvlt0o" class="animable"></path><ellipse cx="343.64" cy="234.91" rx="14.53" ry="8.39" style="fill: rgb(69, 90, 100); transform-origin: 343.64px 234.91px;" id="elv0bkbrq1dm" class="animable"></ellipse></g><g id="freepik--Sheets--inject-2" class="animable" style="transform-origin: 272.301px 258.83px;"><g id="el78ntmh11du5"><g style="opacity: 0.2; transform-origin: 272.298px 263.06px;" class="animable"><path d="M223,259.76l55,31.78a3.45,3.45,0,0,0,3.1,0l40.51-23.39c.86-.49.86-1.29,0-1.79l-55-31.78a3.45,3.45,0,0,0-3.1,0L223,258C222.12,258.47,222.12,259.27,223,259.76Z" id="elvbd8jkwmrm" class="animable" style="transform-origin: 272.298px 263.06px;"></path></g></g><path d="M223,256.89l55,31.78a3.39,3.39,0,0,0,3.1,0l40.51-23.38c.86-.5.86-1.3,0-1.79l-55-31.78a3.39,3.39,0,0,0-3.1,0L223,255.1C222.12,255.6,222.12,256.4,223,256.89Z" style="fill: rgb(235, 235, 235); transform-origin: 272.298px 260.195px;" id="el7jyo3scsgd4" class="animable"></path><path d="M263.49,231.72,225,253.92l53,30.61a3.45,3.45,0,0,0,3.1,0l38.47-22.21-53-30.6A3.39,3.39,0,0,0,263.49,231.72Z" style="fill: rgb(224, 224, 224); transform-origin: 272.285px 258.124px;" id="elnhr9brh9eof" class="animable"></path><path d="M223,251.3l55,31.78a3.45,3.45,0,0,0,3.1,0l40.51-23.39a.94.94,0,0,0,0-1.79l-55-31.78a3.45,3.45,0,0,0-3.1,0L223,249.51C222.12,250,222.12,250.8,223,251.3Z" style="fill: rgb(250, 250, 250); transform-origin: 272.301px 254.6px;" id="elbv1byty7j8p" class="animable"></path><path d="M311,259.71a3.24,3.24,0,0,1-.87.35,4.45,4.45,0,0,1-.85.12,3.56,3.56,0,0,1-.75-.06,2,2,0,0,1-.56-.19.17.17,0,0,1-.1-.11s0-.07.07-.1l.44-.25a.41.41,0,0,1,.2-.06.83.83,0,0,1,.22,0,2,2,0,0,0,.6,0,1.65,1.65,0,0,0,.7-.25,1.11,1.11,0,0,0,.26-.2.55.55,0,0,0,.15-.21.31.31,0,0,0,0-.21.43.43,0,0,0-.18-.17.91.91,0,0,0-.33-.13,1.27,1.27,0,0,0-.38,0,2.72,2.72,0,0,0-.51.13l-.72.24a7.84,7.84,0,0,1-.86.25,4.17,4.17,0,0,1-.75.08,2.39,2.39,0,0,1-.66-.09,2.45,2.45,0,0,1-.61-.25,1.51,1.51,0,0,1-.47-.42.72.72,0,0,1-.12-.48,1.05,1.05,0,0,1,.25-.51,2.5,2.5,0,0,1,.64-.5,4.36,4.36,0,0,1,.76-.33,4.11,4.11,0,0,1,.85-.16,3.82,3.82,0,0,1,.83,0,2.62,2.62,0,0,1,.75.23c.06,0,.09.07.09.11s0,.07-.07.1l-.43.25a.54.54,0,0,1-.43,0l-.29,0a1.3,1.3,0,0,0-.34,0,2,2,0,0,0-.38.08,2.09,2.09,0,0,0-.44.2,1.74,1.74,0,0,0-.33.23.85.85,0,0,0-.2.24.34.34,0,0,0,0,.22.34.34,0,0,0,.19.21.71.71,0,0,0,.35.1,1.45,1.45,0,0,0,.44-.05,5.89,5.89,0,0,0,.57-.18l.77-.25a6.49,6.49,0,0,1,.75-.2,3.16,3.16,0,0,1,.68-.05,2.76,2.76,0,0,1,.63.1,3.13,3.13,0,0,1,.63.28,1.3,1.3,0,0,1,.47.42.74.74,0,0,1,.13.46.94.94,0,0,1-.22.48A1.7,1.7,0,0,1,311,259.71Z" style="fill: rgb(69, 90, 100); transform-origin: 308.354px 258.179px;" id="elapx8gpxwrnb" class="animable"></path><path d="M301.35,260.42a.29.29,0,0,1-.17,0,.38.38,0,0,1-.19,0l-.51-.3a.17.17,0,0,1-.09-.1.14.14,0,0,1,.06-.11l2.74-1.57a.29.29,0,0,1,.17,0,.53.53,0,0,1,.19,0l4.64,2.68a.19.19,0,0,1,.09.11.12.12,0,0,1-.06.1l-2.69,1.55a.29.29,0,0,1-.17,0,.53.53,0,0,1-.19-.05l-.51-.3a.14.14,0,0,1-.08-.11s0-.07.06-.1l2-1.16-1.15-.66-1.87,1.08a.32.32,0,0,1-.18,0,.48.48,0,0,1-.18-.05l-.51-.3a.17.17,0,0,1-.09-.1.13.13,0,0,1,.06-.11l1.88-1.08-1.2-.69Z" style="fill: rgb(69, 90, 100); transform-origin: 304.335px 260.56px;" id="elc8suldsaw2q" class="animable"></path><path d="M296.69,262.08a.46.46,0,0,1,.23-.06h.18l4.73.72-3-1.71a.17.17,0,0,1-.09-.1.11.11,0,0,1,.06-.1l.51-.3a.4.4,0,0,1,.17,0,.36.36,0,0,1,.19.05l4.64,2.68a.19.19,0,0,1,.09.11.12.12,0,0,1-.06.1l-.44.25a.43.43,0,0,1-.22.06l-.19,0L298.8,263l3,1.71a.19.19,0,0,1,.09.11.11.11,0,0,1-.06.1l-.51.29a.29.29,0,0,1-.17,0,.38.38,0,0,1-.19,0l-4.64-2.68a.19.19,0,0,1-.09-.11.12.12,0,0,1,.06-.1Z" style="fill: rgb(69, 90, 100); transform-origin: 300.315px 262.872px;" id="elmyw7n12ynfl" class="animable"></path><path d="M297.25,267.56a.34.34,0,0,1-.18,0,.41.41,0,0,1-.19-.05l-.51-.29c-.05,0-.08-.07-.08-.11a.08.08,0,0,1,.06-.1l1.12-.65-3.94-2.27a.19.19,0,0,1-.09-.11.11.11,0,0,1,.06-.1l.51-.29a.29.29,0,0,1,.17,0,.36.36,0,0,1,.19.05l3.94,2.28,1.12-.65a.29.29,0,0,1,.17,0,.48.48,0,0,1,.19,0l.51.3a.16.16,0,0,1,.09.11.12.12,0,0,1-.06.1Z" style="fill: rgb(69, 90, 100); transform-origin: 296.915px 265.575px;" id="ele239ootmo7l" class="animable"></path><path d="M289.42,267.31a.29.29,0,0,1-.17,0,.53.53,0,0,1-.19-.05l-.51-.3a.19.19,0,0,1-.09-.11s0-.07.07-.1l2.73-1.58a.4.4,0,0,1,.17,0,.36.36,0,0,1,.19.05l4.64,2.68a.19.19,0,0,1,.09.11.12.12,0,0,1-.06.1l-2.68,1.55a.48.48,0,0,1-.18,0,.41.41,0,0,1-.19-.05l-.51-.29a.14.14,0,0,1-.08-.11s0-.07.06-.1l2-1.16-1.14-.66-1.88,1.08a.23.23,0,0,1-.17,0,.29.29,0,0,1-.19-.05l-.51-.29a.19.19,0,0,1-.09-.11.12.12,0,0,1,.06-.1l1.88-1.08-1.2-.69Z" style="fill: rgb(69, 90, 100); transform-origin: 292.405px 267.415px;" id="elw4bv9o7197" class="animable"></path><path d="M284.76,269a.38.38,0,0,1,.23-.06h.18l4.73.72-3-1.71a.16.16,0,0,1-.09-.11.12.12,0,0,1,.06-.1l.51-.29a.23.23,0,0,1,.17,0,.36.36,0,0,1,.19.05l4.64,2.68a.14.14,0,0,1,.09.1.11.11,0,0,1-.06.1l-.44.26a.34.34,0,0,1-.22.05h-.19l-4.73-.72,3,1.71c.06,0,.09.07.09.11a.1.1,0,0,1-.06.1l-.5.29a.34.34,0,0,1-.18,0,.59.59,0,0,1-.19-.05l-4.64-2.68a.22.22,0,0,1-.09-.11.1.1,0,0,1,.07-.1Z" style="fill: rgb(69, 90, 100); transform-origin: 288.365px 269.813px;" id="el7jrozpqx7n9" class="animable"></path><path d="M282.11,272.34c.05,0,.08.08.07.12a.09.09,0,0,1-.07.09l-.5.29a.38.38,0,0,1-.36,0,1.7,1.7,0,0,1-.46-.42.81.81,0,0,1-.2-.5,1,1,0,0,1,.17-.55,2.13,2.13,0,0,1,.68-.56,3.06,3.06,0,0,1,.91-.35,3.94,3.94,0,0,1,1-.09,4.16,4.16,0,0,1,1,.15,5.23,5.23,0,0,1,.95.38l.62.34c.22.13.42.24.59.36a2.78,2.78,0,0,1,.65.54,1.07,1.07,0,0,1,.27.57.84.84,0,0,1-.15.56,1.92,1.92,0,0,1-.61.53,4.17,4.17,0,0,1-1,.39,4.61,4.61,0,0,1-1,.1,3.58,3.58,0,0,1-.87-.12,3.91,3.91,0,0,1-.71-.26c-.06,0-.09-.07-.09-.11s0-.07.07-.1l.5-.29a.27.27,0,0,1,.16,0,.39.39,0,0,1,.21,0,1.79,1.79,0,0,0,.37.11,1.53,1.53,0,0,0,.43,0,2,2,0,0,0,.47-.07,1.94,1.94,0,0,0,.5-.2.89.89,0,0,0,.33-.3.43.43,0,0,0,.08-.3.62.62,0,0,0-.16-.31,1.74,1.74,0,0,0-.35-.29l-.59-.36-.62-.34a3.07,3.07,0,0,0-.5-.2,2.45,2.45,0,0,0-.53-.09,2.37,2.37,0,0,0-.53,0,1.6,1.6,0,0,0-.51.2,1.19,1.19,0,0,0-.35.28.54.54,0,0,0-.13.28.43.43,0,0,0,.05.25A.66.66,0,0,0,282.11,272.34Z" style="fill: rgb(69, 90, 100); transform-origin: 284.012px 272.329px;" id="elchxq6xou3sg" class="animable"></path><path d="M276.93,274.52a.32.32,0,0,1-.18,0,.35.35,0,0,1-.18-.05l-.51-.3a.14.14,0,0,1-.09-.1.11.11,0,0,1,.06-.1l2.73-1.58a.34.34,0,0,1,.18,0,.59.59,0,0,1,.19.05l4.64,2.68a.14.14,0,0,1,.08.11.08.08,0,0,1-.06.1l-2.68,1.55a.31.31,0,0,1-.17,0,.48.48,0,0,1-.19-.05l-.51-.3a.16.16,0,0,1-.09-.11.12.12,0,0,1,.06-.1l2-1.16-1.14-.66-1.87,1.08a.34.34,0,0,1-.18,0,.41.41,0,0,1-.19-.05l-.5-.3c-.06,0-.09-.06-.09-.1a.1.1,0,0,1,.06-.11l1.87-1.08-1.19-.69Z" style="fill: rgb(69, 90, 100); transform-origin: 279.912px 274.635px;" id="elnardea679m" class="animable"></path><path d="M271.35,270.35a.53.53,0,0,1-.47-.27.53.53,0,0,1,.2-.74l28.71-16.58a.54.54,0,1,1,.55.94l-28.72,16.58A.54.54,0,0,1,271.35,270.35Z" style="fill: rgb(235, 235, 235); transform-origin: 285.706px 261.518px;" id="el3ps0bsq4mn9" class="animable"></path><path d="M266.4,267.6a.56.56,0,0,1-.47-.27.54.54,0,0,1,.2-.74L294.85,250a.54.54,0,0,1,.55.94l-28.72,16.59A.55.55,0,0,1,266.4,267.6Z" style="fill: rgb(235, 235, 235); transform-origin: 280.763px 258.763px;" id="eluxlzoaoz7ka" class="animable"></path><path d="M261.46,264.85a.53.53,0,0,1-.47-.28.54.54,0,0,1,.2-.74l28.72-16.58a.54.54,0,0,1,.54.94l-28.72,16.58A.53.53,0,0,1,261.46,264.85Z" style="fill: rgb(235, 235, 235); transform-origin: 275.818px 256.015px;" id="elbxdvymquf5t" class="animable"></path><path d="M256.52,262.09a.53.53,0,0,1-.47-.27.53.53,0,0,1,.2-.74L285,244.5a.54.54,0,1,1,.55.94L256.79,262A.54.54,0,0,1,256.52,262.09Z" style="fill: rgb(235, 235, 235); transform-origin: 270.897px 253.257px;" id="el8haal2j1hdk" class="animable"></path><path d="M251.57,259.34a.55.55,0,0,1-.27-1L280,241.74a.54.54,0,0,1,.55.94l-28.72,16.59A.55.55,0,0,1,251.57,259.34Z" style="fill: rgb(235, 235, 235); transform-origin: 265.942px 250.503px;" id="elkq051v3z63o" class="animable"></path><path d="M246.63,256.59a.53.53,0,0,1-.47-.28.54.54,0,0,1,.2-.74L275.08,239a.54.54,0,0,1,.54.94L246.9,256.51A.53.53,0,0,1,246.63,256.59Z" style="fill: rgb(235, 235, 235); transform-origin: 260.99px 247.759px;" id="el044ndffesq77" class="animable"></path><path d="M241.69,253.83a.53.53,0,0,1-.47-.27.54.54,0,0,1,.19-.74l28.72-16.58a.54.54,0,1,1,.55.94L242,253.76A.54.54,0,0,1,241.69,253.83Z" style="fill: rgb(235, 235, 235); transform-origin: 256.047px 244.999px;" id="elk0dat2t897" class="animable"></path></g></g></g><defs>     <filter id="active" height="200%">         <feMorphology in="SourceAlpha" result="DILATED" operator="dilate" radius="2"></feMorphology>                <feFlood flood-color="#32DFEC" flood-opacity="1" result="PINK"></feFlood>        <feComposite in="PINK" in2="DILATED" operator="in" result="OUTLINE"></feComposite>        <feMerge>            <feMergeNode in="OUTLINE"></feMergeNode>            <feMergeNode in="SourceGraphic"></feMergeNode>        </feMerge>    </filter>    <filter id="hover" height="200%">        <feMorphology in="SourceAlpha" result="DILATED" operator="dilate" radius="2"></feMorphology>                <feFlood flood-color="#ff0000" flood-opacity="0.5" result="PINK"></feFlood>        <feComposite in="PINK" in2="DILATED" operator="in" result="OUTLINE"></feComposite>        <feMerge>            <feMergeNode in="OUTLINE"></feMergeNode>            <feMergeNode in="SourceGraphic"></feMergeNode>        </feMerge>            <feColorMatrix type="matrix" values="0   0   0   0   0                0   1   0   0   0                0   0   0   0   0                0   0   0   1   0 "></feColorMatrix>    </filter></defs></svg>