<svg width="30" height="30" viewBox="0 0 54 85" fill="none" xmlns="http://www.w3.org/2000/svg">
<g id="&#240;&#159;&#166;&#134; icon &#34;phone&#34;">
<path id="Vector" d="M2.0115 0C0.846946 0 0 0.846946 0 2.0115V82.789C0 83.9535 0.846946 84.8005 2.0115 84.8005H51.0285C52.1931 84.8005 53.04 83.9535 53.04 82.789V2.0115C53.04 0.846946 52.1931 0 51.0285 0L2.0115 0ZM10.5868 10.5868H42.3473V63.521H10.5868V10.5868ZM26.4671 68.8144C29.4314 68.8144 31.7605 71.1435 31.7605 74.1078C31.7605 77.0721 29.4314 79.4012 26.4671 79.4012C23.5028 79.4012 21.1737 77.0721 21.1737 74.1078C21.1737 71.1435 23.5028 68.8144 26.4671 68.8144Z" fill="#E83363"/>
</g>
</svg>
